<?xml version="1.0" encoding="UTF-8"?>
<svg version="1.1" xmlns="http://www.w3.org/2000/svg" width="435" height="627">
<path d="M0 0 C0.99 0.33 1.98 0.66 3 1 C3.26845998 6.55059151 2.37907592 10.92168125 0.6875 16.1875 C0.22232376 17.70522914 -0.24121497 19.22346113 -0.703125 20.7421875 C-0.92806641 21.4753418 -1.15300781 22.20849609 -1.38476562 22.96386719 C-3.94584185 31.43980994 -5.63707888 40.08201695 -7.30883789 48.765625 C-8.43135173 54.48138377 -9.7675565 60.10877744 -11.21899414 65.74926758 C-20.58397808 99.11545092 -20.58397808 99.11545092 -18 132 C-12.98699333 132.05012236 -7.97413833 132.08605439 -2.9609375 132.10986328 C-1.26201836 132.11980786 0.43688419 132.13336831 2.13574219 132.15087891 C13.43870841 132.26430891 24.14119229 131.76242043 35.26904297 129.54858398 C38.65587102 129.14495289 40.70620668 129.79308356 43.45703125 131.73046875 C48.24651659 135.90241924 52.54129852 140.51188165 56.625 145.37109375 C58.05285575 147.10900577 58.05285575 147.10900577 60 149 C60.30292969 148.46890625 60.60585937 147.9378125 60.91796875 147.390625 C63.97798416 142.23096824 66.66696023 138.00766319 72.6875 136.1875 C75 136 75 136 77 137 C76.53493229 139.90667318 75.46194049 141.97038429 73.9375 144.4375 C72.1569483 147.42008479 71.57160901 149.46577434 72 153 C72.5878125 152.01 72.5878125 152.01 73.1875 151 C75 149 75 149 77.625 148.6875 C80 149 80 149 81 150 C85.86928016 150.28642824 89.431328 149.59372279 94 148 C94.66 148.33 95.32 148.66 96 149 C96.33 149.99 96.66 150.98 97 152 C97.35329805 147.05382728 96.22587303 144.35496897 94 140 C94.33 139.01 94.66 138.02 95 137 C99.46749165 137.91313566 102.65003109 139.94133274 106 143 C107.9375 146.3125 107.9375 146.3125 109 149 C113.00397112 146.32337273 116.19949946 143.97965866 119 140 C119.66 140 120.32 140 121 140 C121.268125 139.401875 121.53625 138.80375 121.8125 138.1875 C123.03585242 135.93395607 123.97960332 134.57141964 126 133 C130.30438382 131.72628899 134.21805615 132.19178961 138.58984375 132.77734375 C140.10247498 132.96373694 141.61517303 133.14958851 143.12792969 133.33496094 C143.91437866 133.4338562 144.70082764 133.53275146 145.5111084 133.63464355 C160.06848606 135.45166091 174.31067976 136.58239596 189 136 C187.92823902 112.41751324 187.92823902 112.41751324 185.0625 89 C184.90491211 88.01265869 184.74732422 87.02531738 184.58496094 86.00805664 C183.70482523 80.91376415 182.48056088 76.15922463 180.76098633 71.28808594 C179.32733619 66.97747667 178.36559918 62.54078179 177.3125 58.125 C174.52274081 46.67898058 171.2421426 35.41124414 167.83203125 24.13671875 C167.22029088 22.09146356 166.60959106 20.04589682 166 18 C165.534729 16.46786865 165.534729 16.46786865 165.06005859 14.90478516 C164.77598145 13.93202637 164.4919043 12.95926758 164.19921875 11.95703125 C163.94358154 11.09698486 163.68794434 10.23693848 163.42456055 9.35083008 C162.97450834 6.85885037 163.19207916 5.37504711 164 3 C165.84936523 3.17285156 165.84936523 3.17285156 168 4 C169.29321289 6.25683594 169.29321289 6.25683594 170.41015625 9.234375 C171.04268311 10.86922852 171.04268311 10.86922852 171.68798828 12.53710938 C172.12095215 13.67986328 172.55391602 14.82261719 173 16 C173.88822075 18.1744634 174.78276704 20.3463536 175.68359375 22.515625 C185.7479734 47.08317253 194.46942925 71.6287711 201.640625 97.203125 C204.37442327 106.90895281 204.37442327 106.90895281 207.60546875 116.45703125 C214.32733557 134.7495954 214.32733557 134.7495954 212 143 C209.45142464 146.38133354 206.43964964 148.5791001 203 151 C201.71910308 152.17663787 200.44712524 153.36311771 199.1875 154.5625 C197.60546875 156.06640625 197.60546875 156.06640625 196 157 C193.21480567 156.64362671 191.17093324 155.63822541 188.5625 154.5 C184.03391075 152.59322558 180.00763645 151.89501893 175.12133789 151.73120117 C174.1800856 151.69834518 173.23883331 151.6654892 172.26905823 151.63163757 C167.99436601 151.50721803 163.7197505 151.38456852 159.44458008 151.27758789 C157.19139289 151.21757013 154.9384269 151.14857071 152.68579102 151.07055664 C149.42747317 150.9579052 146.16943224 150.8724472 142.91015625 150.79296875 C141.90686783 150.75358688 140.90357941 150.71420502 139.86988831 150.67362976 C133.88507822 150.56529542 130.53694384 150.97488852 126 155 C124.04447028 157.7482695 124.04447028 157.7482695 122.625 160.75 C122.12226563 161.73484375 121.61953125 162.7196875 121.1015625 163.734375 C120.73804688 164.48203125 120.37453125 165.2296875 120 166 C125.98299242 163.73681574 131.51482067 161.2911076 137 158 C141.36016326 155.51888444 145.07383768 155.46510662 150 156 C152.72057272 156.90215883 155.20300394 157.85844035 157.8125 159 C167.09379475 162.72362749 176.56683587 164.9069989 186.3125 167 C187.08038849 167.165 187.84827698 167.33 188.63943481 167.5 C191.76181988 168.1690446 194.88471125 168.83562511 198.00856018 169.49780273 C206.11505906 171.22146894 214.18344828 173.09946284 222.25 175 C223.55376971 175.30608591 224.85756131 175.61207855 226.16137695 175.91796875 C229.10800985 176.61019491 232.05423587 177.30408794 235 178 C234.64224839 171.18966993 234.26797715 164.38038115 233.88305664 157.5715332 C233.75439296 155.26281519 233.62929409 152.95389528 233.50805664 150.64477539 C232.79985044 137.20634408 231.73975094 124.18805338 229 111 C228.70432496 109.35488205 228.41152613 107.70923604 228.125 106.0625 C226.6986075 99.11760538 224.65242381 92.31666498 222.70751953 85.50341797 C221.99627639 82.98682474 221.30664536 80.46510826 220.62109375 77.94140625 C214.66596511 56.21701469 207.59797729 32.89696594 195 14 C194.875 11.3125 194.875 11.3125 195 9 C199.41151045 10.47050348 201.85139916 14.04622223 204 18 C204 18.99 204 19.98 204 21 C204.99 21.33 205.98 21.66 207 22 C208.54080183 24.3739098 209.91335673 26.70206294 211.25 29.1875 C211.64912598 29.91727051 212.04825195 30.64704102 212.45947266 31.39892578 C213.65170839 33.59304029 214.82771189 35.7951769 216 38 C216.58007812 39.07636719 217.16015625 40.15273438 217.7578125 41.26171875 C227.28161762 59.59619382 235.43160581 79.20325837 240.9375 99.125 C241.45097331 100.9611753 241.96530851 102.79710977 242.48046875 104.6328125 C242.7336084 105.53547852 242.98674805 106.43814453 243.24755859 107.36816406 C243.94695506 109.81446318 244.67670926 112.24820504 245.42578125 114.6796875 C247.72491609 122.16019387 249.61198902 129.36206178 250.54296875 137.16796875 C250.92404707 140.03605256 250.92404707 140.03605256 251.9609375 142.80859375 C253.49156362 147.50980254 254.07160483 152.30723865 254.76757812 157.19140625 C255.36590865 161.08551319 256.13268022 164.59150139 257.59765625 168.2578125 C259.6347099 173.69373841 259.6347099 173.69373841 259 177 C257.3203125 179.01953125 257.3203125 179.01953125 255.125 180.8125 C254.40570313 181.41707031 253.68640625 182.02164063 252.9453125 182.64453125 C251 184 251 184 249 184 C248.74863281 184.58394531 248.49726563 185.16789063 248.23828125 185.76953125 C246.84422403 188.28059332 245.33778756 189.79212225 243.1875 191.6875 C242.52105469 192.28949219 241.85460937 192.89148438 241.16796875 193.51171875 C238.55919806 195.30260457 237.18011473 195.91751864 234 196 C231.32774343 194.91997516 228.9532905 193.80379825 226.4375 192.4375 C225.37088135 191.88376709 225.37088135 191.88376709 224.28271484 191.31884766 C221.14522502 189.68831333 218.03094032 188.0166662 214.91796875 186.33984375 C190.87700016 173.73094414 157.80176917 165.30975625 131 172 C127.56404793 173.4225861 127.56404793 173.4225861 125 175 C124.01 175.33 123.02 175.66 122 176 C122 176.66 122 177.32 122 178 C129.25612045 179.16430586 136.32108691 180.11571858 143.6796875 179.921875 C144.64438965 179.89738281 145.6090918 179.87289062 146.60302734 179.84765625 C148.49769821 179.78378735 150.39171274 179.69369118 152.28369141 179.57421875 C158.35228394 179.37115983 161.64628838 180.39209642 166.27539062 184.36474609 C166.84451172 184.90437988 167.41363281 185.44401367 168 186 C168.886875 186.83402344 169.77375 187.66804687 170.6875 188.52734375 C171.450625 189.32269531 172.21375 190.11804688 173 190.9375 C176.63942919 194.67240804 180.36587762 198.13446576 184.40625 201.4296875 C186.15096542 203.14874534 187.03228451 204.76457723 188 207 C188.66 207 189.32 207 190 207 C190 207.66 190 208.32 190 209 C190.84498047 209.36544922 190.84498047 209.36544922 191.70703125 209.73828125 C194.43339281 211.23847679 196.41543375 213.06178262 198.6875 215.1875 C202.54969557 218.72784594 206.48930974 222.02088192 210.66015625 225.1875 C213.29084075 227.22529233 215.82674034 229.3601848 218.375 231.5 C222.78488103 235.13094516 227.32965074 238.20539187 232.19140625 241.19140625 C235.21015954 243.13533222 238.02872995 245.24950003 240.875 247.4375 C245.09774711 250.63338923 249.35987229 253.69880623 253.8125 256.5625 C254.82957031 257.22378906 255.84664063 257.88507813 256.89453125 258.56640625 C260.55772357 260.25746484 263.00721974 260.41109098 267 260 C267.99 259.34 268.98 258.68 270 258 C272.1875 258.375 272.1875 258.375 274 259 C274.75672252 287.33505428 272.78709847 316.22457391 267 344 C266.75765625 345.16547363 266.5153125 346.33094727 266.265625 347.53173828 C257.210089 390.18486651 257.210089 390.18486651 250 401 C249.48512169 402.37073563 249.0143768 403.75850173 248.578125 405.15625 C247.12287971 409.67152234 245.48439189 414.08540971 243.75 418.5 C243.44698975 419.27190674 243.14397949 420.04381348 242.83178711 420.83911133 C242.20125177 422.43980127 241.56900556 424.03981831 240.93505859 425.63916016 C240.32815277 427.17147852 239.72413808 428.70494631 239.12353516 430.23974609 C235.80557067 438.70254745 232.1981126 446.78649337 227.77856445 454.734375 C225.28912821 459.26662953 223.47294363 463.78629438 221.984375 468.73046875 C220.79930757 471.46270756 219.19852788 473.02405036 217 475 C216.01 474.67 215.02 474.34 214 474 C221.60441001 450.76430274 221.60441001 450.76430274 225.125 443.25 C227.69544724 437.69656461 229.30393823 431.86762547 231 426 C231.39574434 424.68096288 231.79158108 423.36195348 232.1875 422.04296875 C242.85584322 385.80673719 246.795408 348.04185682 247.89160156 310.42675781 C247.99442477 307.17624748 248.13271059 303.92873277 248.2734375 300.6796875 C248.33040961 298.74485759 248.38521727 296.80996231 248.4375 294.875 C248.48398682 294.00617188 248.53047363 293.13734375 248.57836914 292.2421875 C248.70707756 284.71090625 245.58457511 279.80485951 240.49829102 274.40600586 C239.33492518 273.26787214 238.16786526 272.13351628 237 271 C237 270.34 237 269.68 237 269 C236.44054687 268.73574219 235.88109375 268.47148437 235.3046875 268.19921875 C228.77323229 264.80064799 223.1822742 260.62771733 218.6484375 254.8359375 C215.80871275 251.67321088 212.36587538 249.2437029 208.9765625 246.69921875 C208.32429688 246.13847656 207.67203125 245.57773437 207 245 C207 244.34 207 243.68 207 243 C206.31164062 242.79632813 205.62328125 242.59265625 204.9140625 242.3828125 C201.01624789 240.53317929 198.43187618 237.8735856 195.375 234.875 C189.58510261 229.34769331 183.60324138 224.53972845 177 220 C174.93184087 218.54970341 172.86922538 217.09146618 170.8125 215.625 C169.89082031 214.97789062 168.96914063 214.33078125 168.01953125 213.6640625 C167.01986328 212.84035156 167.01986328 212.84035156 166 212 C166 211.34 166 210.68 166 210 C164.68 209.34 163.36 208.68 162 208 C162 207.34 162 206.68 162 206 C161.2265625 205.6596875 161.2265625 205.6596875 160.4375 205.3125 C157.76027723 203.87091851 155.52795929 202.13161052 153.171875 200.21875 C147.14748972 196.8381597 140.24345485 196.63858781 133.5 196.375 C132.26636719 196.31699219 132.26636719 196.31699219 131.0078125 196.2578125 C129.0055299 196.16468308 127.00279738 196.08131015 125 196 C133.87726634 205.16587619 133.87726634 205.16587619 143.71484375 213.265625 C145.44920148 214.58195805 147.1189015 215.98399848 148.75390625 217.421875 C149.70136719 218.25203125 150.64882813 219.0821875 151.625 219.9375 C152.48351562 220.70964844 153.34203125 221.48179687 154.2265625 222.27734375 C157.69330364 224.43062945 159.99107342 224.15711945 164 224 C166.90185472 226.90185472 166.47439162 229.96549028 166.625 233.875 C166.68083252 235.16615723 166.68083252 235.16615723 166.73779297 236.48339844 C167.94504624 269.16268756 166.86097544 301.94878244 164.81265259 334.56741333 C164.68943343 336.53409054 164.56904229 338.50094738 164.45175171 340.46798706 C163.839151 350.60066632 162.93140226 360.30413655 160.73120117 370.22436523 C159.88986102 374.5687143 159.42664542 378.87947113 159.01171875 383.28125 C158.09939291 392.79046714 156.57750572 402.11522628 154.8125 411.5 C154.58581635 412.72059616 154.58581635 412.72059616 154.35455322 413.96585083 C150.21452735 436.15746005 144.72348808 457.83922124 136.75439453 478.98022461 C136.04640118 480.87576796 135.36030416 482.77944891 134.67578125 484.68359375 C123.41789596 515.68310025 123.41789596 515.68310025 114 525 C113.505 525.721875 113.01 526.44375 112.5 527.1875 C111.7575 528.0846875 111.7575 528.0846875 111 529 C110.01 529 109.02 529 108 529 C108.58163213 524.91385024 109.93097543 522.19796074 112.0625 518.6875 C117.13369039 509.55935731 120.02021514 499.64418003 123.12915039 489.71411133 C123.64867951 488.09493408 124.18986075 486.48208381 124.77514648 484.88549805 C127.4013855 477.70316523 128.68552489 470.20068757 130.10717773 462.70922852 C130.55841472 460.33400413 131.01963203 457.960888 131.48242188 455.58789062 C133.04910839 447.47937079 134.45379747 439.39587226 135.48803711 431.19995117 C136 428 136 428 137.00585938 424.203125 C138.1868938 419.62488518 138.52791125 415.10250219 138.81640625 410.39453125 C138.90821419 409.03201233 138.90821419 409.03201233 139.00187683 407.64196777 C139.19725712 404.69929186 139.38092144 401.75605778 139.5625 398.8125 C139.65863586 397.29346573 139.65863586 397.29346573 139.75671387 395.7437439 C140.19359404 388.83040854 140.60445733 381.91581392 141 375 C141.04316345 374.2589502 141.0863269 373.51790039 141.13079834 372.75439453 C142.92307218 341.74702655 141.62486965 310.57670481 139.66088867 279.60351562 C139.19548805 272.13529752 138.86536697 264.66995598 138.75390625 257.1875 C138.73230942 256.42808105 138.71071259 255.66866211 138.6884613 254.88623047 C138.65950803 250.54845959 139.05101593 248.20821968 142 245 C142.65786774 240.72385969 141.29566637 238.53915232 139 235 C139 234.34 139 233.68 139 233 C138.01 232.67 137.02 232.34 136 232 C134.59765625 230.57421875 134.59765625 230.57421875 133.0625 228.6875 C125.87927896 220.24112781 118.13586292 212.32482818 109 206 C108.52825817 211.80832125 109.83961026 215.05288245 113 219.75 C116.78722958 225.84086943 118.3845395 230.73684194 117 238 C116.34137077 240.00266123 115.67426636 242.00254929 115 244 C114.54958601 246.07629866 114.13615614 248.16079625 113.75 250.25 C110.5384046 266.80548846 106.68817191 283.1918626 101.9375 299.375 C101.62143799 300.46071289 101.30537598 301.54642578 100.97973633 302.66503906 C99.07398434 309.01005491 96.81118607 315.07889999 94.19799805 321.16552734 C93.09753288 323.76923646 92.08844863 326.38354729 91.12109375 329.0390625 C90.83943359 329.80347656 90.55777344 330.56789063 90.26757812 331.35546875 C89.70112057 332.90423036 89.14422451 334.45651427 88.59570312 336.01171875 C88.17514648 337.13900391 88.17514648 337.13900391 87.74609375 338.2890625 C87.50560303 338.95631348 87.2651123 339.62356445 87.01733398 340.31103516 C85.70757263 342.48548417 84.31384194 343.06012308 82 344 C81.01 342.35 80.02 340.7 79 339 C78.34 340.32 77.68 341.64 77 343 C73.56491829 341.96487493 72.8697201 340.77989822 71 337.62109375 C70.32007041 336.23298079 69.65403231 334.83800119 69 333.4375 C68.64897217 332.70587646 68.29794434 331.97425293 67.9362793 331.22045898 C67.24792551 329.77954348 66.56502633 328.33600675 65.88818359 326.88964844 C65.20203984 325.42984836 64.4908924 323.9817848 63.76953125 322.5390625 C60.45523284 315.6940217 58.59767405 308.27809783 56.55517578 300.97851562 C56.08724898 299.31093479 55.60571945 297.64717963 55.12109375 295.984375 C51.91479705 284.77072999 49.99178924 273.27267706 48.12939453 261.77441406 C47.41723175 257.40036831 46.63477232 253.04984951 45.77172852 248.703125 C42.92300743 234.22986883 41.74054012 225.2914247 49.6875 212.6875 C50.10386719 212.07261719 50.52023438 211.45773438 50.94921875 210.82421875 C52.06142649 208.89335996 52.56297557 207.17551723 53 205 C49.51190809 205.77030122 49.51190809 205.77030122 46 207 C45.67 207.99 45.34 208.98 45 210 C44.34 210 43.68 210 43 210 C42.67 210.99 42.34 211.98 42 213 C39.82390239 215.30798231 37.55797878 217.47797985 35.2421875 219.64453125 C30.9671 223.7551923 27.12221592 228.11147832 23.4375 232.75 C22.9835083 233.30494141 22.5295166 233.85988281 22.06176758 234.43164062 C19.59554936 237.49789326 19.59554936 237.49789326 19.16015625 241.265625 C19.76493745 242.51456851 20.37941637 243.75883275 21 245 C21.0662791 246.38193181 21.06859854 247.76721769 21.03759766 249.15039062 C21.02070389 250.0174765 21.00381012 250.88456238 20.98640442 251.77792358 C20.96253159 252.7277713 20.93865875 253.67761902 20.9140625 254.65625 C20.89304977 255.64775055 20.87203705 256.6392511 20.85038757 257.66079712 C20.80406901 259.81055722 20.75533762 261.96026637 20.70449829 264.10992432 C20.6240511 267.5404645 20.55176891 270.97109885 20.48120117 274.40185547 C20.26358643 284.74187744 20.01619256 295.0786403 19.63671875 305.4140625 C17.78249789 357.79048683 18.74321189 410.86195626 31 462 C31.26103516 463.10327637 31.52207031 464.20655273 31.79101562 465.34326172 C35.69608974 481.87729303 35.69608974 481.87729303 41 498 C41.22155762 498.59603027 41.44311523 499.19206055 41.67138672 499.80615234 C44.2253283 506.63884175 46.75411443 513.34346592 50.921875 519.38671875 C53.25572178 522.87903296 54 524.66543326 54 529 C50.98932537 528.68146446 49.4097234 528.4061135 47.2265625 526.2421875 C36.39740433 510.23616347 29.62580954 491.22446012 24.72436523 472.62524414 C24.05971399 470.21641543 23.30566872 467.87227057 22.48828125 465.51171875 C12.42462124 435.92233503 9.22511219 402.85497607 6.28369141 371.890625 C6.03230939 369.32921101 5.75179097 366.77453123 5.44921875 364.21875 C4.11621712 352.85828104 3.41695142 341.46960207 2.78491211 330.05200195 C2.67481812 328.09073364 2.67481812 328.09073364 2.5625 326.08984375 C2.5244223 325.39899185 2.4863446 324.70813995 2.44711304 323.99635315 C2.2022838 319.77675436 1.88199174 315.57119528 1.4987793 311.36181641 C-0.0684619 293.79045812 -0.27675241 276.35944703 -0.19561768 258.73620605 C-0.1846026 255.70184198 -0.1851549 252.66752121 -0.18575573 249.63314056 C-0.185485 246.6958692 -0.18002559 243.75862705 -0.17275429 240.82136536 C-0.16958181 239.4274772 -0.16760355 238.03358578 -0.16686058 236.63969421 C-0.16470321 234.71746616 -0.15517508 232.79525058 -0.14526367 230.87304688 C-0.14145187 229.78342651 -0.13764008 228.69380615 -0.13371277 227.57116699 C0 225 0 225 1 223 C1.83096191 223.09897583 1.83096191 223.09897583 2.67871094 223.19995117 C9.5828663 223.66563806 13.02870166 221.62816617 18.25 217.3125 C18.930625 216.78205078 19.61125 216.25160156 20.3125 215.70507812 C24.13126784 212.68928763 27.57864583 209.46466245 31 206 C33.3125 204.6875 33.3125 204.6875 35 204 C35 203.34 35 202.68 35 202 C36.53125 200.4921875 36.53125 200.4921875 38.5 198.875 C39.1496875 198.33617187 39.799375 197.79734375 40.46875 197.2421875 C40.9740625 196.83226562 41.479375 196.42234375 42 196 C37.84971994 196.33325065 33.70675431 196.72415864 29.5625 197.125 C28.39783203 197.2178125 27.23316406 197.310625 26.03320312 197.40625 C18.16370307 198.20428381 13.08795686 199.94923903 7 205 C6.44272217 205.43940918 5.88544434 205.87881836 5.3112793 206.33154297 C2.92248158 208.24609689 0.61492779 210.25647505 -1.71484375 212.2421875 C-4 214 -4 214 -6 214 C-6.22429687 214.57105469 -6.44859375 215.14210937 -6.6796875 215.73046875 C-8.38362474 218.65942596 -10.46175427 220.22418893 -13.125 222.3125 C-18.70343804 226.75929131 -24.08939271 231.34918245 -29.36328125 236.15234375 C-33.43552896 239.85726585 -37.5169868 243.44621416 -41.875 246.8125 C-46.51363267 250.45766173 -50.60055073 254.49334917 -54.72753906 258.69165039 C-58.33632498 262.3587756 -61.94759887 265.82855564 -66 269 C-66.66 269 -67.32 269 -68 269 C-68.66 270.32 -69.32 271.64 -70 273 C-70.66 273 -71.32 273 -72 273 C-72.26639282 273.59603027 -72.53278564 274.19206055 -72.80725098 274.80615234 C-74.01843321 277.03390457 -75.27262408 278.35228149 -77.08398438 280.1015625 C-80.97711617 284.56336729 -80.80616062 288.65834331 -80.65625 294.375 C-80.65250366 295.37595703 -80.64875732 296.37691406 -80.64489746 297.40820312 C-80.63148136 299.52975777 -80.60370079 301.65126397 -80.5625 303.77246094 C-80.5012637 306.93474195 -80.48064399 310.09500213 -80.46875 313.2578125 C-80.19627549 348.89552719 -76.66429001 387.71079314 -64.30859375 421.390625 C-63.15294638 424.57814193 -62.21360375 427.7181129 -61.375 431 C-60.2916829 435.13403766 -58.88047147 438.98246982 -57.2421875 442.92578125 C-55.53570469 447.1490579 -53.95422113 451.41527406 -52.375 455.6875 C-51.92302246 456.89986328 -51.92302246 456.89986328 -51.46191406 458.13671875 C-49.77239291 462.71744945 -48.27457639 467.28659129 -47 472 C-47.66 472.33 -48.32 472.66 -49 473 C-52.1811958 470.29991097 -53.86391642 466.83035683 -55.75 463.1875 C-56.09708008 462.5275 -56.44416016 461.8675 -56.80175781 461.1875 C-59.77368428 455.50865961 -62.62575531 449.7714853 -65.46875 444.02734375 C-66.66810201 441.65617588 -67.90416342 439.35144176 -69.25 437.0625 C-77.33607648 422.91186616 -82.488803 406.31887818 -88 391 C-88.24459961 390.32356445 -88.48919922 389.64712891 -88.74121094 388.95019531 C-103.69307748 347.16663068 -106.46999975 304.9522076 -106 261 C-103 260 -103 260 -100 261 C-92.50325652 262.07315346 -87.39434274 259.71973189 -81 256 C-79.6078125 255.2575 -79.6078125 255.2575 -78.1875 254.5 C-75.87520827 253.01267009 -75.87520827 253.01267009 -73.75 250.75 C-70.90492846 247.90492846 -67.92868833 245.53737931 -64.73828125 243.09765625 C-61.38682287 240.53027658 -58.06797184 237.92292162 -54.75 235.3125 C-54.15968994 234.8489209 -53.56937988 234.3853418 -52.96118164 233.90771484 C-52.39133545 233.45992676 -51.82148926 233.01213867 -51.234375 232.55078125 C-50.68587891 232.12104004 -50.13738281 231.69129883 -49.57226562 231.24853516 C-48.0976861 230.07757247 -46.64932377 228.87380767 -45.203125 227.66796875 C-43 226 -43 226 -41 226 C-40.67 225.01 -40.34 224.02 -40 223 C-38.22265625 221.17578125 -38.22265625 221.17578125 -36.0625 219.3125 C-35.35222656 218.68988281 -34.64195313 218.06726563 -33.91015625 217.42578125 C-32 216 -32 216 -30 216 C-30 215.34 -30 214.68 -30 214 C-28.67092438 212.86079233 -27.28242489 211.79086085 -25.875 210.75 C-20.33076964 206.46076735 -15.50141428 201.62248372 -10.64794922 196.57324219 C-10.07318848 195.98188477 -9.49842773 195.39052734 -8.90625 194.78125 C-8.39384766 194.24564453 -7.88144531 193.71003906 -7.35351562 193.15820312 C-6 192 -6 192 -4 192 C-4 191.34 -4 190.68 -4 190 C-3.34 190 -2.68 190 -2 190 C-1.773125 189.443125 -1.54625 188.88625 -1.3125 188.3125 C0.54411125 185.0413278 1.94009542 183.29587402 5 181 C8.97275724 180.39511026 12.86960077 180.5764809 16.875 180.75 C18.99727113 180.8117388 21.11967352 180.86914173 23.2421875 180.921875 C24.24209717 180.94822021 25.24200684 180.97456543 26.2722168 181.00170898 C29.58533641 180.99963328 32.7377782 180.55553841 36 180 C37.64485066 179.93943849 39.29172957 179.91218045 40.9375 179.9375 C41.70964844 179.94652344 42.48179687 179.95554688 43.27734375 179.96484375 C44.13005859 179.98224609 44.13005859 179.98224609 45 180 C42.92351203 177.75688027 40.97354872 176.25856275 38.25 174.875 C37.61578125 174.54242188 36.9815625 174.20984375 36.328125 173.8671875 C30.75930681 171.79289616 24.81478181 171.81799792 18.9375 171.8125 C18.27556641 171.80025391 17.61363281 171.78800781 16.93164062 171.77539062 C4.67097215 171.74104702 -7.03887891 174.56761563 -18.75 177.9375 C-19.98621094 178.28490234 -21.22242187 178.63230469 -22.49609375 178.99023438 C-24.90430993 179.66970451 -27.31042134 180.3566896 -29.71411133 181.05200195 C-31.74619106 181.63826881 -33.78191055 182.21226474 -35.82299805 182.76635742 C-41.45325339 184.33562185 -46.27918853 186.47876244 -51.3125 189.4375 C-51.98861328 189.81970703 -52.66472656 190.20191406 -53.36132812 190.59570312 C-56.38951048 192.33580011 -59.10385263 194.08339681 -61.8359375 196.27734375 C-64 198 -64 198 -66.3125 198.125 C-72.41787296 195.56926248 -77.63208787 190.91390115 -82 186 C-82 185.34 -82 184.68 -82 184 C-82.8353125 183.6596875 -82.8353125 183.6596875 -83.6875 183.3125 C-86.80152749 181.54507899 -88.79351756 179.83690599 -91 177 C-91 174.28581779 -90.7105586 172.56564112 -90 170 C-89.56082144 168.2712589 -89.12353793 166.54203593 -88.6875 164.8125 C-88.42453125 163.78382813 -88.1615625 162.75515625 -87.890625 161.6953125 C-85.43687949 151.51442106 -83.27446433 141.23317973 -82.1875 130.8125 C-80.40591887 116.35489032 -75.5686514 102.10086848 -70.8125 88.375 C-70.58723633 87.71967285 -70.36197266 87.0643457 -70.12988281 86.38916016 C-68.98532992 83.21547613 -67.65772843 80.30001725 -65.94921875 77.40234375 C-64.17223358 74.30063216 -63.06676577 71.57892617 -62 68.1875 C-59.43862456 60.77551983 -56.26658985 53.6888393 -53 46.5625 C-52.23429687 44.87386841 -52.23429687 44.87386841 -51.453125 43.15112305 C-48.73417641 37.28094457 -45.87395166 32.16745755 -42 27 C-40.99341542 25.10822798 -40.03149425 23.19172142 -39.125 21.25 C-36.21403026 15.29266659 -33.19954875 9.16554665 -29 4 C-28.01 4 -27.02 4 -26 4 C-26.53538329 10.21044614 -27.77147555 14.35406845 -31.0625 19.73828125 C-35.76133637 27.69848103 -38.76968945 36.37032312 -42 45 C-42.66 45 -43.32 45 -44 45 C-44.061875 46.010625 -44.12375 47.02125 -44.1875 48.0625 C-44.69398655 52.21423744 -45.93425508 55.89105383 -47.328125 59.828125 C-50.01265993 67.65339711 -51.9031788 75.58972935 -53.5625 83.6875 C-53.71029907 84.40086517 -53.85809814 85.11423035 -54.01037598 85.84921265 C-59.97332715 114.75977672 -62.26563575 143.57974753 -64 173 C-62.58838263 172.85295726 -61.17706259 172.7030589 -59.76586914 172.55200195 C-58.9799086 172.46884232 -58.19394806 172.38568268 -57.38417053 172.30000305 C-53.67919245 171.83380119 -50.07261554 171.02890548 -46.4375 170.1875 C-45.66736572 170.01299316 -44.89723145 169.83848633 -44.10375977 169.65869141 C-38.19026462 168.30637815 -32.30189076 166.8586631 -26.42333984 165.36230469 C-22.9812189 164.48676141 -19.53876611 163.66523045 -16.0625 162.9375 C-12.53250776 162.1721185 -9.18989024 161.09737432 -5.77734375 159.921875 C0.11400485 157.96637814 6.0718983 156.23075517 12.046875 154.55029297 C13.69054957 154.08718766 15.33016284 153.60970222 16.96875 153.12890625 C26.06332276 150.81209262 32.58615126 154.04268455 40.4375 158.625 C41.42621094 159.23601562 42.41492188 159.84703125 43.43359375 160.4765625 C45.98131909 162.11173222 45.98131909 162.11173222 49 163 C46.71121371 156.88189818 44.21818445 150.92390174 38 148 C30.4786344 146.48387797 22.69671243 146.79038329 15.06005859 146.94140625 C12.51022695 146.99023022 9.9750258 146.98917784 7.42578125 146.9375 C-7.95363004 146.07904099 -7.95363004 146.07904099 -22 151 C-22.33 151.66 -22.66 152.32 -23 153 C-26.29683832 153.36306212 -27.67401245 153.22285318 -30.45703125 151.3203125 C-31.23433594 150.59585938 -32.01164062 149.87140625 -32.8125 149.125 C-33.60269531 148.40570313 -34.39289063 147.68640625 -35.20703125 146.9453125 C-37 145 -37 145 -37 143 C-37.66 143 -38.32 143 -39 143 C-41.42676723 140.0396882 -41.99426072 138.30654511 -42.06640625 134.453125 C-41.92180362 133.04947927 -41.75199558 131.64829277 -41.5625 130.25 C-41.46686768 129.47849609 -41.37123535 128.70699219 -41.27270508 127.91210938 C-39.7371135 116.76404239 -36.82844414 105.87556692 -34 95 C-33.7844043 94.1534082 -33.56880859 93.30681641 -33.34667969 92.43457031 C-30.12092096 79.81815372 -26.48923924 66.71773242 -20.5078125 55.10229492 C-19.07593781 52.15624057 -18.11981073 49.39848337 -17.2265625 46.25390625 C-14.90234804 38.47077323 -12.10194213 30.8900074 -9.25390625 23.28540039 C-8.36521064 20.91134881 -7.48301268 18.53495318 -6.6015625 16.15820312 C-6.03422971 14.63527672 -5.46653487 13.11248512 -4.8984375 11.58984375 C-4.63694916 10.88568832 -4.37546082 10.1815329 -4.10604858 9.45603943 C-2.88876364 6.21367376 -1.63924143 3.05415017 0 0 Z " fill="#0D0C0D" transform="translate(134,19)"/>
<path d="M0 0 C4.41151045 1.47050348 6.85139916 5.04622223 9 9 C9 9.99 9 10.98 9 12 C9.99 12.33 10.98 12.66 12 13 C13.54080183 15.3739098 14.91335673 17.70206294 16.25 20.1875 C16.64912598 20.91727051 17.04825195 21.64704102 17.45947266 22.39892578 C18.65170839 24.59304029 19.82771189 26.7951769 21 29 C21.58007812 30.07636719 22.16015625 31.15273438 22.7578125 32.26171875 C32.28161762 50.59619382 40.43160581 70.20325837 45.9375 90.125 C46.45097331 91.9611753 46.96530851 93.79710977 47.48046875 95.6328125 C47.86017822 96.98681152 47.86017822 96.98681152 48.24755859 98.36816406 C48.94695506 100.81446318 49.67670926 103.24820504 50.42578125 105.6796875 C52.72491609 113.16019387 54.61198902 120.36206178 55.54296875 128.16796875 C55.92404707 131.03605256 55.92404707 131.03605256 56.9609375 133.80859375 C58.49156362 138.50980254 59.07160483 143.30723865 59.76757812 148.19140625 C60.36590865 152.08551319 61.13268022 155.59150139 62.59765625 159.2578125 C64.6347099 164.69373841 64.6347099 164.69373841 64 168 C62.3203125 170.01953125 62.3203125 170.01953125 60.125 171.8125 C59.40570313 172.41707031 58.68640625 173.02164063 57.9453125 173.64453125 C56 175 56 175 54 175 C53.74863281 175.58394531 53.49726563 176.16789063 53.23828125 176.76953125 C51.84422403 179.28059332 50.33778756 180.79212225 48.1875 182.6875 C47.52105469 183.28949219 46.85460937 183.89148438 46.16796875 184.51171875 C43.55919806 186.30260457 42.18011473 186.91751864 39 187 C36.32774343 185.91997516 33.9532905 184.80379825 31.4375 183.4375 C30.7264209 183.06834473 30.0153418 182.69918945 29.28271484 182.31884766 C26.14522502 180.68831333 23.03094032 179.0166662 19.91796875 177.33984375 C-4.12299984 164.73094414 -37.19823083 156.30975625 -64 163 C-67.43595207 164.4225861 -67.43595207 164.4225861 -70 166 C-70.99 166.33 -71.98 166.66 -73 167 C-73 166.01 -73 165.02 -73 164 C-72.01 164 -71.02 164 -70 164 C-70 163.34 -70 162.68 -70 162 C-68.35 162 -66.7 162 -65 162 C-65 161.34 -65 160.68 -65 160 C-61.43671918 158.89627075 -58.11532119 158.87076388 -54.3984375 158.8671875 C-53.10292969 158.86589844 -51.80742187 158.86460937 -50.47265625 158.86328125 C-49.7986377 158.86537598 -49.12461914 158.8674707 -48.43017578 158.86962891 C-46.40259118 158.87492789 -44.37523352 158.86970232 -42.34765625 158.86328125 C-35.16923112 158.87038157 -28.122336 159.07301942 -21 160 C-20.67 158.68 -20.34 157.36 -20 156 C-10.03284917 157.45513279 -0.25952289 159.65029 9.55566406 161.88623047 C12.25770853 162.501756 14.96077165 163.11263025 17.6640625 163.72265625 C19.40631043 164.11692055 21.14850001 164.51144281 22.890625 164.90625 C23.68664124 165.08651733 24.48265747 165.26678467 25.30279541 165.45251465 C30.21860615 166.57305997 35.11247137 167.76177043 40 169 C39.64224839 162.18966993 39.26797715 155.38038115 38.88305664 148.5715332 C38.75439296 146.26281519 38.62929409 143.95389528 38.50805664 141.64477539 C37.79985044 128.20634408 36.73975094 115.18805338 34 102 C33.70432496 100.35488205 33.41152613 98.70923604 33.125 97.0625 C31.6986075 90.11760538 29.65242381 83.31666498 27.70751953 76.50341797 C26.99627639 73.98682474 26.30664536 71.46510826 25.62109375 68.94140625 C19.66596511 47.21701469 12.59797729 23.89696594 0 5 C-0.125 2.3125 -0.125 2.3125 0 0 Z " fill="#151414" transform="translate(329,28)"/>
<path d="M0 0 C0.99 0 1.98 0 3 0 C2.46461671 6.21044614 1.22852445 10.35406845 -2.0625 15.73828125 C-6.76133637 23.69848103 -9.76968945 32.37032312 -13 41 C-13.66 41 -14.32 41 -15 41 C-15.12375 42.258125 -15.2475 43.51625 -15.375 44.8125 C-15.69868059 48.10325263 -16.06604999 49.09907498 -18 52 C-17.95875 50.88625 -17.9175 49.7725 -17.875 48.625 C-17.58878141 44.95633975 -17.58878141 44.95633975 -20 43 C-20.33773437 43.5775 -20.67546875 44.155 -21.0234375 44.75 C-21.69246094 45.86375 -21.69246094 45.86375 -22.375 47 C-22.81585938 47.7425 -23.25671875 48.485 -23.7109375 49.25 C-24.13632813 49.8275 -24.56171875 50.405 -25 51 C-25.66 51 -26.32 51 -27 51 C-25.50069616 46.053843 -23.44811735 41.59441796 -21.125 37 C-20.78597656 36.31421875 -20.44695312 35.6284375 -20.09765625 34.921875 C-17.99393296 30.73042631 -15.61827945 26.89809017 -13 23 C-12.03031595 21.12042475 -11.09244054 19.2240891 -10.1875 17.3125 C-4.19469278 5.15957369 -4.19469278 5.15957369 0 0 Z " fill="#252324" transform="translate(105,23)"/>
<path d="M0 0 C5.17080223 1.78726937 10.5477386 2.36937849 15.9609375 3.0234375 C15.6309375 4.6734375 15.3009375 6.3234375 14.9609375 8.0234375 C1.4309375 8.0234375 -12.0990625 8.0234375 -26.0390625 8.0234375 C-26.3690625 6.0434375 -26.6990625 4.0634375 -27.0390625 2.0234375 C-18.36466314 -5.04459161 -9.86682968 -3.98631228 0 0 Z " fill="#080608" transform="translate(293.0390625,179.9765625)"/>
<path d="M0 0 C8.43373483 1.29165308 16.7078409 2.99383248 25 5 C25 5.33 25 5.66 25 6 C15.58997722 6.3690205 15.58997722 6.3690205 11 4 C11.23033854 5.97277979 11.23033854 5.97277979 12 8 C14.66492144 9.05225645 17.12012405 9.85102334 19.875 10.5625 C28.73317746 12.92104813 28.73317746 12.92104813 31 16 C25.21114847 15.08740458 19.87907145 13.64171164 14.375 11.625 C-3.88527542 5.17822033 -29.19729544 0.50758572 -47.5625 8.5625 C-48.366875 9.036875 -49.17125 9.51125 -50 10 C-50.99 10.33 -51.98 10.66 -53 11 C-53 10.01 -53 9.02 -53 8 C-52.01 8 -51.02 8 -50 8 C-50 7.34 -50 6.68 -50 6 C-48.35 6 -46.7 6 -45 6 C-45 5.34 -45 4.68 -45 4 C-41.43671918 2.89627075 -38.11532119 2.87076388 -34.3984375 2.8671875 C-33.10292969 2.86589844 -31.80742187 2.86460937 -30.47265625 2.86328125 C-29.7986377 2.86537598 -29.12461914 2.8674707 -28.43017578 2.86962891 C-26.40259118 2.87492789 -24.37523352 2.86970232 -22.34765625 2.86328125 C-15.16923112 2.87038157 -8.122336 3.07301942 -1 4 C-0.67 2.68 -0.34 1.36 0 0 Z " fill="#433C43" transform="translate(309,184)"/>
<path d="M0 0 C1.84375 0.16015625 1.84375 0.16015625 4 1 C5.34375 3.37109375 5.34375 3.37109375 6.5 6.4375 C6.91507812 7.51773437 7.33015625 8.59796875 7.7578125 9.7109375 C8.16773438 10.79632813 8.57765625 11.88171875 9 13 C10.12909543 15.64875846 11.26052974 18.29642219 12.3984375 20.94140625 C13 23 13 23 12 26 C12 25.34 12 24.68 12 24 C11.01 24.33 10.02 24.66 9 25 C9.22816406 25.80824219 9.45632813 26.61648437 9.69140625 27.44921875 C9.97886719 28.51785156 10.26632812 29.58648437 10.5625 30.6875 C10.99755859 32.27111328 10.99755859 32.27111328 11.44140625 33.88671875 C12.00124767 37.00695382 11.84690764 38.97693234 11 42 C9.20413153 39.3061973 8.47723852 37.64306557 7.6328125 34.60546875 C7.38861572 33.73849365 7.14441895 32.87151855 6.89282227 31.97827148 C6.63944092 31.05731689 6.38605957 30.1363623 6.125 29.1875 C5.59539407 27.28636303 5.0654451 25.38532159 4.53515625 23.484375 C4.27621582 22.55173828 4.01727539 21.61910156 3.75048828 20.65820312 C3.08752034 18.30999398 2.39691419 15.97392646 1.68359375 13.640625 C1.31363281 12.41859375 0.94367188 11.1965625 0.5625 9.9375 C0.23378906 8.87402344 -0.09492188 7.81054688 -0.43359375 6.71484375 C-1.00012743 3.99938923 -0.94369957 2.57204394 0 0 Z " fill="#514B50" transform="translate(298,22)"/>
<path d="M0 0 C1.32 0 2.64 0 4 0 C1.99004303 8.70981355 -1.99092189 16.22488834 -6.04394531 24.109375 C-8.59888135 29.16183279 -10.88010877 34.35335058 -13.0859375 39.56640625 C-13.42882812 40.36949219 -13.77171875 41.17257812 -14.125 42 C-14.41632813 42.70125 -14.70765625 43.4025 -15.0078125 44.125 C-16.08031676 46.15177971 -17.30673972 47.46936923 -19 49 C-19.99 48.67 -20.98 48.34 -22 48 C-20.03678383 42.00128391 -18.00086085 36.02743164 -15.9375 30.0625 C-15.55150635 28.92566772 -15.55150635 28.92566772 -15.15771484 27.76586914 C-13.22862734 22.22862734 -13.22862734 22.22862734 -11 20 C-11 21.98 -11 23.96 -11 26 C-8.22316968 23.57834565 -6.96355849 21.1086791 -5.5 17.75 C-5.07332031 16.77289063 -4.64664062 15.79578125 -4.20703125 14.7890625 C-3.80871094 13.86867188 -3.41039062 12.94828125 -3 12 C-2.67386719 11.30648438 -2.34773438 10.61296875 -2.01171875 9.8984375 C-0.41341188 6.45942651 0.34537009 3.79907094 0 0 Z " fill="#474145" transform="translate(370,445)"/>
<path d="M0 0 C0.65880661 0.00707474 1.31761322 0.01414948 1.99638367 0.0214386 C4.08601909 0.04927146 6.17290351 0.11197306 8.26171875 0.17578125 C9.68420589 0.2008792 11.10673534 0.22368977 12.52929688 0.24414062 C16.00348736 0.29905679 19.47608425 0.3852444 22.94921875 0.48828125 C22.94921875 1.14828125 22.94921875 1.80828125 22.94921875 2.48828125 C12.92928622 3.84691617 2.95580742 4.05794222 -7.05078125 2.48828125 C-7.2828125 3.20886719 -7.51484375 3.92945313 -7.75390625 4.671875 C-10.58363483 10.81715906 -16.7468967 16.27207135 -22.48828125 19.80078125 C-25.37832788 21.70398269 -26.36780323 23.52303426 -28.05078125 26.48828125 C-29.04078125 26.81828125 -30.03078125 27.14828125 -31.05078125 27.48828125 C-31.38078125 28.14828125 -31.71078125 28.80828125 -32.05078125 29.48828125 C-34.61328125 30.11328125 -34.61328125 30.11328125 -37.05078125 30.48828125 C-36.37402344 29.81410156 -35.69726562 29.13992187 -35 28.4453125 C-32.84273642 26.28956973 -30.70396061 24.11660687 -28.5703125 21.9375 C-27.33471289 20.6835174 -26.09903452 19.42961242 -24.86328125 18.17578125 C-23.9206543 17.20801758 -23.9206543 17.20801758 -22.95898438 16.22070312 C-22.35634766 15.61162109 -21.75371094 15.00253906 -21.1328125 14.375 C-20.58858643 13.82030029 -20.04436035 13.26560059 -19.48364258 12.6940918 C-18.05078125 11.48828125 -18.05078125 11.48828125 -16.05078125 11.48828125 C-16.05078125 10.82828125 -16.05078125 10.16828125 -16.05078125 9.48828125 C-15.39078125 9.48828125 -14.73078125 9.48828125 -14.05078125 9.48828125 C-13.82390625 8.93140625 -13.59703125 8.37453125 -13.36328125 7.80078125 C-9.95928034 1.80325584 -6.86195706 -0.14599909 0 0 Z " fill="#423F42" transform="translate(146.05078125,199.51171875)"/>
<path d="M0 0 C0.33 0 0.66 0 1 0 C1.01981934 1.18215088 1.03963867 2.36430176 1.06005859 3.58227539 C1.51930085 30.06439859 2.30894394 56.1153816 6.31640625 82.3359375 C7.00492554 86.87959184 7.51917836 91.42990483 8 96 C7.34 96 6.68 96 6 96 C4.27735724 89.6836432 3.2690036 83.4267477 2.4375 76.9375 C2.18633446 75.02992993 1.93503539 73.12237744 1.68359375 71.21484375 C1.57587646 70.38073975 1.46815918 69.54663574 1.35717773 68.68725586 C1.1053508 66.79261536 0.80248603 64.9044175 0.46337891 63.0234375 C-0.36780631 57.19659182 -0.12181239 51.28118339 -0.09765625 45.41015625 C-0.0962413 44.11049423 -0.09482635 42.81083221 -0.09336853 41.4717865 C-0.08957334 38.03756747 -0.07976908 34.60339158 -0.06866455 31.16918945 C-0.05838555 27.65641869 -0.05385708 24.14364088 -0.04882812 20.63085938 C-0.03814376 13.75388867 -0.02110388 6.87694641 0 0 Z " fill="#737172" transform="translate(52,308)"/>
<path d="M0 0 C0.66 0 1.32 0 2 0 C1.41311385 4.48760419 0.63594116 8.87881044 -0.30737305 13.30419922 C-2.28028084 22.6128149 -3.82994155 31.95768562 -5.1875 41.375 C-5.43753784 43.08369263 -5.43753784 43.08369263 -5.69262695 44.8269043 C-6.82218016 52.86837166 -7.51364952 60.89517995 -8 69 C-8.66 68.67 -9.32 68.34 -10 68 C-10.36869575 59.38344379 -9.77427426 51.56237267 -8.13964844 43.1315918 C-7.34834054 39.04082929 -6.74588313 35.03817231 -6.4375 30.875 C-6.12368736 26.68246317 -5.18562352 23.04506847 -4 19 C-3.46995331 15.73343318 -3.00347208 12.46332359 -2.5625 9.18359375 C-1.99553052 5.97470401 -1.10476785 3.06112759 0 0 Z " fill="#636061" transform="translate(80,93)"/>
<path d="M0 0 C0.99 0.33 1.98 0.66 3 1 C3.30748219 6.7883523 2.24369016 11.43780698 0.5 16.9375 C0.26152344 17.71673828 0.02304688 18.49597656 -0.22265625 19.29882812 C-0.80642178 21.20190376 -1.40199976 23.10134922 -2 25 C-2.33 25 -2.66 25 -3 25 C-3.33 23.35 -3.66 21.7 -4 20 C-4.99 20.33 -5.98 20.66 -7 21 C-7.33 23.97 -7.66 26.94 -8 30 C-8.99 30.33 -9.98 30.66 -11 31 C-10.35735325 25.08764992 -8.20687288 19.87066713 -6.0625 14.375 C-5.70220703 13.43398438 -5.34191406 12.49296875 -4.97070312 11.5234375 C-3.45462241 7.59223742 -1.93816709 3.74522446 0 0 Z " fill="#4B4346" transform="translate(134,19)"/>
<path d="M0 0 C2.1055906 2.1055906 2.65367382 3.35466531 3.65625 6.10546875 C3.95660156 6.92466797 4.25695312 7.74386719 4.56640625 8.58789062 C4.87449219 9.44576172 5.18257812 10.30363281 5.5 11.1875 C5.96212891 12.44530273 5.96212891 12.44530273 6.43359375 13.72851562 C8.14920317 18.44460074 9.68899634 23.15584146 11 28 C10.34 28.33 9.68 28.66 9 29 C5.66605937 26.20952304 3.91922513 22.47079344 1.9375 18.6875 C1.58623047 18.03587891 1.23496094 17.38425781 0.87304688 16.71289062 C-1.15046555 12.89155053 -2.7550917 9.16044484 -4 5 C-3.01 5.33 -2.02 5.66 -1 6 C-0.67 6 -0.34 6 0 6 C0 4.02 0 2.04 0 0 Z " fill="#685D68" transform="translate(76,463)"/>
<path d="M0 0 C0.99 0 1.98 0 3 0 C2.30531899 8.05829973 -0.45189036 13.41308259 -5 20 C-6.65 19.67 -8.3 19.34 -10 19 C-10.33 19.99 -10.66 20.98 -11 22 C-11.33 21.34 -11.66 20.68 -12 20 C-10.66475409 16.83574537 -8.76733422 13.9398096 -7 11 C-6.40960938 9.99710938 -5.81921875 8.99421875 -5.2109375 7.9609375 C-4.60507813 6.96320312 -3.99921875 5.96546875 -3.375 4.9375 C-2.52035156 3.52791016 -2.52035156 3.52791016 -1.6484375 2.08984375 C-1.10445312 1.40019531 -0.56046875 0.71054687 0 0 Z " fill="#5B585A" transform="translate(105,23)"/>
<path d="M0 0 C0.99 0 1.98 0 3 0 C4.65 3.63 6.3 7.26 8 11 C8.33 10.01 8.66 9.02 9 8 C8.34 7.01 7.68 6.02 7 5 C7.375 2.8125 7.375 2.8125 8 1 C8.95921722 2.74951568 9.91733817 4.49963244 10.875 6.25 C11.67550781 7.71179688 11.67550781 7.71179688 12.4921875 9.203125 C13.23855469 10.58757813 13.23855469 10.58757813 14 12 C14.39445313 12.69609375 14.78890625 13.3921875 15.1953125 14.109375 C16 16 16 16 16 20 C12.81467904 19.69403435 11.36604414 19.38354729 9.12109375 17.03125 C5.47362868 11.5473582 2.3902456 6.14634583 0 0 Z " fill="#414041" transform="translate(172,528)"/>
<path d="M0 0 C1.97881817 2.96822725 3.00346365 5.70782292 4.0703125 9.08984375 C4.77727307 11.30280857 5.53052798 13.50104473 6.3046875 15.69140625 C9.1304589 23.84423947 12.03554641 32.32410403 10 41 C8.0197234 43.68121609 5.89855954 45.38065168 3 47 C2.505 45.515 2.505 45.515 2 44 C2.99 44 3.98 44 5 44 C8.22125266 38.59702243 7.88658949 31.74050163 6.46484375 25.7421875 C5.97728702 24.34079494 5.46572901 22.94757933 4.93359375 21.5625 C3.693097 18.1576219 2.7500048 14.68469479 1.8125 11.1875 C1.46832031 9.92292969 1.12414062 8.65835938 0.76953125 7.35546875 C0 4 0 4 0 0 Z " fill="#565656" transform="translate(336,121)"/>
<path d="M0 0 C3 0 3 0 4.5625 1.1875 C6.29892965 3.3769113 7.19761931 5.3253977 8 8 C7.67 8.99 7.34 9.98 7 11 C7 10.34 7 9.68 7 9 C6.01 9.33 5.02 9.66 4 10 C4.22816406 10.80824219 4.45632813 11.61648437 4.69140625 12.44921875 C4.97886719 13.51785156 5.26632812 14.58648437 5.5625 15.6875 C5.85253906 16.74324219 6.14257812 17.79898438 6.44140625 18.88671875 C7.00124767 22.00695382 6.84690764 23.97693234 6 27 C0.7435357 19.11530354 0.42473258 9.2123032 0 0 Z " fill="#211F21" transform="translate(303,37)"/>
<path d="M0 0 C2.0625 2.25 2.0625 2.25 4 5 C3.58564021 8.32190133 2.08104219 11.20040739 0.625 14.1875 C0.20476562 15.06792969 -0.21546875 15.94835937 -0.6484375 16.85546875 C-2 19 -2 19 -5 20 C-3.25740319 6.3667426 -3.25740319 6.3667426 0 0 Z " fill="#0A0708" transform="translate(363,452)"/>
<path d="M0 0 C4.55015893 1.51671964 6.50057264 5.16891053 9 9 C8.67 9.66 8.34 10.32 8 11 C7.67 10.01 7.34 9.02 7 8 C6.34 8 5.68 8 5 8 C5.44472656 8.90363281 5.88945312 9.80726562 6.34765625 10.73828125 C7.19650391 12.50751953 7.19650391 12.50751953 8.0625 14.3125 C8.63097656 15.48425781 9.19945312 16.65601563 9.78515625 17.86328125 C11 21 11 21 10 24 C8.31633005 20.94655708 6.65618778 17.88092357 5 14.8125 C4.52304687 13.94818359 4.04609375 13.08386719 3.5546875 12.19335938 C3.10351562 11.35224609 2.65234375 10.51113281 2.1875 9.64453125 C1.55908203 8.48981323 1.55908203 8.48981323 0.91796875 7.31176758 C-0.11210918 4.71766973 -0.17114843 2.76618651 0 0 Z " fill="#625C5D" transform="translate(329,28)"/>
<path d="M0 0 C1.1171875 3.71875 1.1171875 3.71875 0.0625 6.25 C-0.4634375 7.11625 -0.4634375 7.11625 -1 8 C1.42130331 6.78934835 1.84658222 5.78126593 3.125 3.4375 C3.74375 2.303125 4.3625 1.16875 5 0 C5.66 0 6.32 0 7 0 C6.33333333 1.33333333 5.66666667 2.66666667 5 4 C4.525625 5.010625 4.05125 6.02125 3.5625 7.0625 C2.17991428 9.66176116 1.11809003 11.05841748 -1 13 C-1.495 13.721875 -1.99 14.44375 -2.5 15.1875 C-3.2425 16.0846875 -3.2425 16.0846875 -4 17 C-4.99 17 -5.98 17 -7 17 C-6.37954537 12.76677156 -4.89476441 9.47709705 -2.9375 5.6875 C-2.38964844 4.61886719 -1.84179688 3.55023437 -1.27734375 2.44921875 C-0.64505859 1.23685547 -0.64505859 1.23685547 0 0 Z " fill="#5F5D5F" transform="translate(249,531)"/>
<path d="M0 0 C1.6675718 0.32877526 3.33405209 0.66309282 5 1 C6.93651019 1.06533435 8.87502861 1.08584303 10.8125 1.0625 C11.78832031 1.05347656 12.76414062 1.04445313 13.76953125 1.03515625 C14.87361328 1.01775391 14.87361328 1.01775391 16 1 C15.67 1.99 15.34 2.98 15 4 C13.25034642 4.05429959 11.50020213 4.09292823 9.75 4.125 C8.77546875 4.14820313 7.8009375 4.17140625 6.796875 4.1953125 C4 4 4 4 0 2 C0 13.88 0 25.76 0 38 C-0.33 38 -0.66 38 -1 38 C-1.02464928 32.74894558 -1.04283568 27.49792455 -1.05493164 22.24682617 C-1.05997218 20.45905979 -1.06680454 18.67129755 -1.07543945 16.88354492 C-1.0875173 14.31948832 -1.09323094 11.75548603 -1.09765625 9.19140625 C-1.10281754 8.3872377 -1.10797882 7.58306915 -1.11329651 6.75453186 C-1.11349215 4.83598285 -1.06201983 2.91754632 -1 1 C-0.67 0.67 -0.34 0.34 0 0 Z " fill="#6A6969" transform="translate(29,279)"/>
<path d="M0 0 C0 0.66 0 1.32 0 2 C-1.65 2.66 -3.3 3.32 -5 4 C-5 4.66 -5 5.32 -5 6 C-6.390625 7.3671875 -6.390625 7.3671875 -8.25 8.875 C-10.97805828 11.1327034 -13.54236923 13.444064 -16 16 C-16.66 15.67 -17.32 15.34 -18 15 C-16.625 13 -16.625 13 -15 11 C-14.34 11 -13.68 11 -13 11 C-13 10.34 -13 9.68 -13 9 C-10.79913001 6.8328168 -8.38946672 4.96277623 -6 3 C-9.96 3 -13.92 3 -18 3 C-18 2.34 -18 1.68 -18 1 C-11.96445452 0.30739642 -6.07593562 -0.11251733 0 0 Z " fill="#383738" transform="translate(182,212)"/>
<path d="M0 0 C2 0 2 0 3.62109375 1.57421875 C12 11.32258065 12 11.32258065 12 15 C11.38125 15.12375 10.7625 15.2475 10.125 15.375 C7.80879168 15.87197356 7.80879168 15.87197356 6 18 C5.81824219 17.34773438 5.63648438 16.69546875 5.44921875 16.0234375 C4.02026917 11.05508972 2.41205577 6.59439194 0 2 C0 1.34 0 0.68 0 0 Z " fill="#120F12" transform="translate(334,36)"/>
<path d="M0 0 C0.66 0 1.32 0 2 0 C1.24251488 5.78371449 0.15908083 11.47188764 -1 17.1875 C-1.17789063 18.07630859 -1.35578125 18.96511719 -1.5390625 19.88085938 C-2.28971049 23.60889098 -3.05323073 27.31608306 -4 31 C-4.66 31 -5.32 31 -6 31 C-5.3393875 25.42568882 -4.53199058 19.90358219 -3.5625 14.375 C-3.44068359 13.65054688 -3.31886719 12.92609375 -3.19335938 12.1796875 C-2.45694932 7.96726934 -1.46943541 4.0329959 0 0 Z " fill="#4D4849" transform="translate(80,93)"/>
<path d="M0 0 C0.33 0 0.66 0 1 0 C0.68678034 12.62742443 0.04476319 24.70605051 -3 37 C-3.33 37 -3.66 37 -4 37 C-4.21181876 29.58122714 -3.58504649 22.4683106 -2.5625 15.125 C-2.36043945 13.59746094 -2.36043945 13.59746094 -2.15429688 12.0390625 C-1.06383351 3.95367558 -1.06383351 3.95367558 0 0 Z " fill="#787777" transform="translate(297,356)"/>
<path d="M0 0 C0.33 0 0.66 0 1 0 C1 2.31 1 4.62 1 7 C0.34 7 -0.32 7 -1 7 C-0.67 7.66 -0.34 8.32 0 9 C1.65 8.01 3.3 7.02 5 6 C4.1875 8.9375 4.1875 8.9375 3 12 C2.01 12.33 1.02 12.66 0 13 C-1.22445284 14.62948064 -1.22445284 14.62948064 -2.1875 16.5625 C-2.785625 17.696875 -3.38375 18.83125 -4 20 C-4.66 20 -5.32 20 -6 20 C-3.10933941 6.3667426 -3.10933941 6.3667426 0 0 Z " fill="#363335" transform="translate(254,519)"/>
<path d="M0 0 C-0.47554546 2.97215912 -1.40654528 4.67334061 -3 7.3125 C-5.14163722 10.89741447 -5.66213097 13.86110442 -6 18 C-6.66 18 -7.32 18 -8 18 C-8.36263859 12.1977825 -7.25684543 8.36000789 -5 3 C-6.98 3.33 -8.96 3.66 -11 4 C-7.39482939 0.00856111 -5.29679003 -1.76559668 0 0 Z " fill="#484649" transform="translate(211,156)"/>
<path d="M0 0 C0.66 0.33 1.32 0.66 2 1 C1.74863281 1.83144531 1.74863281 1.83144531 1.4921875 2.6796875 C1.28851563 3.40414063 1.08484375 4.12859375 0.875 4.875 C0.66617188 5.59429688 0.45734375 6.31359375 0.2421875 7.0546875 C0.12230469 8.01761719 0.12230469 8.01761719 0 9 C0.66 9.66 1.32 10.32 2 11 C1.625 14.625 1.625 14.625 1 18 C0.67 18 0.34 18 0 18 C-0.33 16.35 -0.66 14.7 -1 13 C-1.99 13.33 -2.98 13.66 -4 14 C-4.33 16.97 -4.66 19.94 -5 23 C-5.99 23.33 -6.98 23.66 -8 24 C-7.3661521 18.482845 -5.49435691 13.73252191 -3.4375 8.625 C-2.9434668 7.37783203 -2.9434668 7.37783203 -2.43945312 6.10546875 C-1.63155238 4.06815382 -0.8182989 2.03315558 0 0 Z " fill="#565154" transform="translate(131,26)"/>
<path d="M0 0 C1.32 0 2.64 0 4 0 C1.83713124 9.37243128 -2.59783571 17.53214258 -7 26 C-7.67002518 27.33164878 -8.33882025 28.66393729 -9 30 C-9.66 30 -10.32 30 -11 30 C-11.33 29.01 -11.66 28.02 -12 27 C-11.39285156 26.44957031 -10.78570312 25.89914062 -10.16015625 25.33203125 C-7.87363187 22.86357727 -6.75711763 20.7666078 -5.4375 17.6875 C-5.01984375 16.71941406 -4.6021875 15.75132812 -4.171875 14.75390625 C-3.78515625 13.84511719 -3.3984375 12.93632812 -3 12 C-2.67515625 11.30777344 -2.3503125 10.61554688 -2.015625 9.90234375 C-0.41309657 6.4629549 0.34554156 3.80095716 0 0 Z " fill="#4B4A4A" transform="translate(370,445)"/>
<path d="M0 0 C0.66 0.66 1.32 1.32 2 2 C1.71544786 7.69104271 -0.80001754 12.82236687 -3 18 C-3.33 18 -3.66 18 -4 18 C-4 15 -4 12 -4 9 C-5.98 9.99 -5.98 9.99 -8 11 C-3.8 1.9 -3.8 1.9 0 0 Z " fill="#40373F" transform="translate(97,41)"/>
<path d="M0 0 C0.66 0 1.32 0 2 0 C2.95377184 4.00320153 3.1157616 7.72211747 3.09765625 11.83203125 C3.09443359 13.12431641 3.09121094 14.41660156 3.08789062 15.74804688 C3.07953665 17.10286526 3.07107172 18.45768297 3.0625 19.8125 C3.05748 21.18684735 3.05291797 22.56119645 3.04882812 23.93554688 C3.03705668 27.29040924 3.02061283 30.64518221 3 34 C2.67 34 2.34 34 2 34 C1.6615135 29.83373537 1.33014248 25.66693347 1 21.5 C0.90460938 20.32695312 0.80921875 19.15390625 0.7109375 17.9453125 C0.2388095 11.94254224 -0.11923326 6.02127983 0 0 Z " fill="#847E7F" transform="translate(134,302)"/>
<path d="M0 0 C0.99 0 1.98 0 3 0 C3.33 1.98 3.66 3.96 4 6 C4.66 6 5.32 6 6 6 C6.103125 5.360625 6.20625 4.72125 6.3125 4.0625 C6.539375 3.381875 6.76625 2.70125 7 2 C7.99 1.67 8.98 1.34 10 1 C8.52307692 6.66153846 8.52307692 6.66153846 5.875 8.375 C5.25625 8.58125 4.6375 8.7875 4 9 C3.01 7.35 2.02 5.7 1 4 C0.34 5.32 -0.32 6.64 -1 8 C-2.32 7.34 -3.64 6.68 -5 6 C-5 5.01 -5 4.02 -5 3 C-3.515 3.99 -3.515 3.99 -2 5 C-1.34 3.35 -0.68 1.7 0 0 Z " fill="#706F71" transform="translate(212,354)"/>
<path d="M0 0 C0.99 0.33 1.98 0.66 3 1 C2.67 1.66 2.34 2.32 2 3 C1.01 2.67 0.02 2.34 -1 2 C-1.33 2.99 -1.66 3.98 -2 5 C-3.45817797 5.16802051 -4.9165484 5.33437143 -6.375 5.5 C-7.59316406 5.63921875 -7.59316406 5.63921875 -8.8359375 5.78125 C-11 6 -11 6 -13 6 C-13 5.01 -13 4.02 -13 3 C-16.12197478 4.3089572 -16.12197478 4.3089572 -18 7 C-18.66 7 -19.32 7 -20 7 C-19 5 -18 3 -17 1 C-15.33388095 0.957279 -13.66617115 0.95936168 -12 1 C-11.67 1.33 -11.34 1.66 -11 2 C-6.61356873 2.24828856 -3.84282865 2.0586582 0 0 Z " fill="#484649" transform="translate(226,167)"/>
<path d="M0 0 C1.18771723 3.42943519 0.80226223 5.37784675 -0.4375 8.75 C-0.72496094 9.54921875 -1.01242188 10.3484375 -1.30859375 11.171875 C-1.53675781 11.77515625 -1.76492187 12.3784375 -2 13 C-1.34 13.33 -0.68 13.66 0 14 C-1.375 16.5 -1.375 16.5 -3 19 C-3.66 19 -4.32 19 -5 19 C-5.33 20.65 -5.66 22.3 -6 24 C-6.66 24 -7.32 24 -8 24 C-6.16243766 15.5741044 -3.52877474 7.86651761 0 0 Z " fill="#4F4B4F" transform="translate(114,72)"/>
<path d="M0 0 C4.65463099 4.65463099 4.54000299 10.76583001 5 17 C4.01 16.67 3.02 16.34 2 16 C2 15.01 2 14.02 2 13 C1.01 13 0.02 13 -1 13 C-2.06775224 11.03533587 -3.06553465 9.03144641 -4 7 C-3.67 6.34 -3.34 5.68 -3 5 C-2.01 5.99 -1.02 6.98 0 8 C0 5.36 0 2.72 0 0 Z " fill="#353336" transform="translate(76,463)"/>
<path d="M0 0 C1.6875 1.37890625 1.6875 1.37890625 4.1875 3.87890625 C3.1975 4.20890625 2.2075 4.53890625 1.1875 4.87890625 C0.56842773 4.40606201 -0.05064453 3.93321777 -0.68847656 3.44604492 C-3.3283377 1.49831289 -4.56692806 1.58804472 -7.796875 1.8046875 C-9.19873047 1.88686523 -9.19873047 1.88686523 -10.62890625 1.97070312 C-12.08103516 2.07995117 -12.08103516 2.07995117 -13.5625 2.19140625 C-14.54605469 2.25263672 -15.52960938 2.31386719 -16.54296875 2.37695312 C-18.96745584 2.52995474 -21.38998027 2.69775659 -23.8125 2.87890625 C-23.8125 2.21890625 -23.8125 1.55890625 -23.8125 0.87890625 C-3.69520545 -2.28561199 -3.69520545 -2.28561199 0 0 Z " fill="#686667" transform="translate(176.8125,150.12109375)"/>
<path d="M0 0 C0.66 0 1.32 0 2 0 C3.35386936 1.65002828 4.68678142 3.3174387 6 5 C6.66 5.33 7.32 5.66 8 6 C8 6.66 8 7.32 8 8 C8.99 8 9.98 8 11 8 C11.474375 8.495 11.94875 8.99 12.4375 9.5 C14.11993064 11.46168789 14.11993064 11.46168789 18 11 C18.474375 10.525625 18.94875 10.05125 19.4375 9.5625 C21.47845707 7.52154293 23.19404667 7.37918288 26 7 C19.27559055 13.96456693 19.27559055 13.96456693 15.75 14.0625 C9.58565835 11.68082254 4.35388936 6.89812553 0 2 C0 1.34 0 0.68 0 0 Z " fill="#565557" transform="translate(52,203)"/>
<path d="M0 0 C0.66 0 1.32 0 2 0 C1.35973469 5.48534992 0.53459226 10.88857324 -0.5 16.3125 C-0.63019531 17.01439453 -0.76039063 17.71628906 -0.89453125 18.43945312 C-1.4484359 21.3740288 -2.05431272 24.16293815 -3 27 C-3.66 27 -4.32 27 -5 27 C-3.37772519 17.99160341 -1.69296954 8.99531146 0 0 Z " fill="#5F5D62" transform="translate(267,467)"/>
<path d="M0 0 C3.69230769 0.69230769 3.69230769 0.69230769 5 2 C5.23287008 3.68183948 5.41264166 5.3712416 5.5625 7.0625 C5.64628906 7.98160156 5.73007812 8.90070312 5.81640625 9.84765625 C5.87699219 10.55792969 5.93757813 11.26820312 6 12 C5.01 12 4.02 12 3 12 C3 11.01 3 10.02 3 9 C2.01 8.67 1.02 8.34 0 8 C-0.38063221 5.6739143 -0.71269945 3.33944736 -1 1 C-0.67 0.67 -0.34 0.34 0 0 Z " fill="#393437" transform="translate(298,22)"/>
<path d="M0 0 C0.33 0 0.66 0 1 0 C1.48157839 3.31215393 1.95981111 6.62478306 2.4375 9.9375 C2.57220703 10.86369141 2.70691406 11.78988281 2.84570312 12.74414062 C3.67198601 18.48781432 4.39037053 24.22923558 5 30 C4.34 30 3.68 30 3 30 C0.22238314 20.00057932 -0.16000955 10.34728439 0 0 Z " fill="#5A5A5A" transform="translate(55,374)"/>
<path d="M0 0 C2.16372228 2.71225533 3.70337668 5.27978567 5.04296875 8.4765625 C5.39423828 9.311875 5.74550781 10.1471875 6.10742188 11.0078125 C6.46384766 11.87148437 6.82027344 12.73515625 7.1875 13.625 C7.73954102 14.93210937 7.73954102 14.93210937 8.30273438 16.265625 C11 22.73105577 11 22.73105577 11 25 C10.34 25 9.68 25 9 25 C8.51080078 23.78763672 8.51080078 23.78763672 8.01171875 22.55078125 C7.57472656 21.48214844 7.13773437 20.41351563 6.6875 19.3125 C6.25824219 18.25675781 5.82898438 17.20101562 5.38671875 16.11328125 C4.08962324 13.01294521 4.08962324 13.01294521 2.375 10.375 C0.36315689 6.89999826 0.33635461 3.96898442 0 0 Z " fill="#656464" transform="translate(357,74)"/>
<path d="M0 0 C0.99 0.66 1.98 1.32 3 2 C1.92621094 1.89300781 0.85242188 1.78601563 -0.25390625 1.67578125 C-1.6900255 1.55375805 -3.12622839 1.43271657 -4.5625 1.3125 C-5.26697266 1.23966797 -5.97144531 1.16683594 -6.69726562 1.09179688 C-12.0530092 0.67222249 -15.16424072 1.71986623 -20 4 C-21.32 4 -22.64 4 -24 4 C-24 3.34 -24 2.68 -24 2 C-15.71553376 -0.88881964 -8.55387697 -3.32744134 0 0 Z " fill="#636363" transform="translate(165,173)"/>
<path d="M0 0 C0.66 0.33 1.32 0.66 2 1 C0.2308289 3.10558394 -1.5402601 5.20950158 -3.3125 7.3125 C-3.81201172 7.90740234 -4.31152344 8.50230469 -4.82617188 9.11523438 C-5.31279297 9.69208984 -5.79941406 10.26894531 -6.30078125 10.86328125 C-6.74591064 11.39219971 -7.19104004 11.92111816 -7.6496582 12.46606445 C-9.03986605 14.04528627 -10.49726496 15.52812987 -12 17 C-12.36372697 12.75651873 -11.62334906 10.37287736 -9 7 C-8.38125 6.855625 -7.7625 6.71125 -7.125 6.5625 C-3.61049038 5.63218863 -2.16617712 2.82806457 0 0 Z " fill="#3E3C3E" transform="translate(164,241)"/>
<path d="M0 0 C0.89203125 0.00902344 1.7840625 0.01804688 2.703125 0.02734375 C3.37859375 0.03894531 4.0540625 0.05054688 4.75 0.0625 C4.42 0.7225 4.09 1.3825 3.75 2.0625 C1.23828125 2.58984375 1.23828125 2.58984375 -1.9375 3 C-6.59141471 3.69642904 -10.15502364 4.64751394 -14.25 7.0625 C-15.24 7.3925 -16.23 7.7225 -17.25 8.0625 C-17.25 7.0725 -17.25 6.0825 -17.25 5.0625 C-16.26 5.0625 -15.27 5.0625 -14.25 5.0625 C-14.25 4.4025 -14.25 3.7425 -14.25 3.0625 C-12.6 3.0625 -10.95 3.0625 -9.25 3.0625 C-9.25 2.4025 -9.25 1.7425 -9.25 1.0625 C-6.09493858 0.12630187 -3.28413498 -0.0432123 0 0 Z " fill="#424041" transform="translate(273.25,186.9375)"/>
<path d="M0 0 C0.66 0 1.32 0 2 0 C2 5.61 2 11.22 2 17 C-0.64 17 -3.28 17 -6 17 C-5.67 16.34 -5.34 15.68 -5 15 C-3.35 15 -1.7 15 0 15 C0 10.05 0 5.1 0 0 Z " fill="#565455" transform="translate(323,140)"/>
<path d="M0 0 C0.99 0 1.98 0 3 0 C2.25 7.625 2.25 7.625 0 11 C0 9.68 0 8.36 0 7 C-0.45375 7.495 -0.9075 7.99 -1.375 8.5 C-3 10 -3 10 -5 10 C-3.66786942 6.4134946 -2.23083941 3.12317517 0 0 Z " fill="#5E595E" transform="translate(105,23)"/>
<path d="M0 0 C0.66 0 1.32 0 2 0 C0.56995324 7.15023379 -1.19508247 14.2506672 -4 21 C-4.66 21.33 -5.32 21.66 -6 22 C-4.7205886 14.39086902 -2.57243067 7.26774103 0 0 Z " fill="#494749" transform="translate(277,471)"/>
<path d="M0 0 C0.721875 0.103125 1.44375 0.20625 2.1875 0.3125 C1.5275 0.9725 0.8675 1.6325 0.1875 2.3125 C-0.8025 2.3125 -1.7925 2.3125 -2.8125 2.3125 C-3.01875 3.034375 -3.225 3.75625 -3.4375 4.5 C-5.23719884 8.18120218 -7.50979204 9.93455027 -10.8125 12.3125 C-13.1875 13.125 -13.1875 13.125 -14.8125 13.3125 C-14.4825 12.6525 -14.1525 11.9925 -13.8125 11.3125 C-13.1525 11.3125 -12.4925 11.3125 -11.8125 11.3125 C-11.8125 10.6525 -11.8125 9.9925 -11.8125 9.3125 C-11.1525 9.3125 -10.4925 9.3125 -9.8125 9.3125 C-9.585625 8.755625 -9.35875 8.19875 -9.125 7.625 C-6.9016471 3.70766394 -4.64913325 0.51657036 0 0 Z " fill="#625A61" transform="translate(141.8125,199.6875)"/>
<path d="M0 0 C0.33 0 0.66 0 1 0 C1.70568708 3.03773774 2.38621327 6.08059372 3.0625 9.125 C3.26166016 9.9809375 3.46082031 10.836875 3.66601562 11.71875 C4.70834668 16.47324253 5.25609146 20.18103278 4 25 C3.67 25 3.34 25 3 25 C2.49279088 22.14694871 1.99406366 19.29283186 1.5 16.4375 C1.35691406 15.63763672 1.21382812 14.83777344 1.06640625 14.01367188 C0.25230605 9.26475402 -0.15519589 4.81753923 0 0 Z " fill="#555052" transform="translate(145,422)"/>
<path d="M0 0 C0.33 0 0.66 0 1 0 C2.79362465 8.74392018 3.23737365 17.08530089 3 26 C2.67 26 2.34 26 2 26 C0.3960652 17.24996282 -0.26197285 8.89252296 0 0 Z " fill="#595859" transform="translate(142,396)"/>
<path d="M0 0 C0.66 0 1.32 0 2 0 C1.41164143 4.41599467 0.29784101 8.15109365 -1.4375 12.25 C-1.86933594 13.28640625 -2.30117187 14.3228125 -2.74609375 15.390625 C-4 18 -4 18 -6 20 C-5.36757331 15.27497299 -4.08186437 11.09429803 -2.4375 6.625 C-2.20353516 5.98433594 -1.96957031 5.34367187 -1.72851562 4.68359375 C-1.15700381 3.1206839 -0.57915771 1.56009273 0 0 Z " fill="#545252" transform="translate(231,325)"/>
<path d="M0 0 C2.74057325 3.27100678 4.18058075 6.58477621 5.6875 10.5625 C6.12449219 11.69816406 6.56148438 12.83382812 7.01171875 14.00390625 C8 17 8 17 8 20 C7.34 20 6.68 20 6 20 C4.99183944 17.41958904 3.9932889 14.83613056 3 12.25 C2.71382813 11.52039063 2.42765625 10.79078125 2.1328125 10.0390625 C1.86210937 9.33007812 1.59140625 8.62109375 1.3125 7.890625 C1.06113281 7.24125977 0.80976563 6.59189453 0.55078125 5.92285156 C0 4 0 4 0 0 Z " fill="#4F4D4E" transform="translate(315,58)"/>
<path d="M0 0 C6.95041086 -0.26618595 13.23514355 0.3879491 20 2 C20 2.33 20 2.66 20 3 C17.60408962 3.02712351 15.20849043 3.0468982 12.8125 3.0625 C12.13896484 3.07087891 11.46542969 3.07925781 10.77148438 3.08789062 C7.04565869 3.10606538 3.6211958 2.89299392 0 2 C0 1.34 0 0.68 0 0 Z " fill="#302F30" transform="translate(291,155)"/>
<path d="M0 0 C0.66 0 1.32 0 2 0 C2.70246995 1.8903376 3.38640849 3.78756828 4.0625 5.6875 C4.44535156 6.74324219 4.82820313 7.79898438 5.22265625 8.88671875 C6.0233052 12.09333792 5.9237249 13.8686307 5 17 C3.025333 14.03799949 2.28044646 11.90228368 1.375 8.5 C1.11460937 7.5409375 0.85421875 6.581875 0.5859375 5.59375 C0 3 0 3 0 0 Z " fill="#4B494A" transform="translate(304,47)"/>
<path d="M0 0 C3.26954202 0.56371414 4.82575883 1.49962266 7 4 C5.35 3.67 3.7 3.34 2 3 C2.33 3.66 2.66 4.32 3 5 C4.28687011 8.86061033 4.13757618 11.94150283 4 16 C3.67 16 3.34 16 3 16 C2.896875 14.96875 2.79375 13.9375 2.6875 12.875 C2.18754269 8.99038243 2.18754269 8.99038243 0.375 5.75 C-0.07875 4.8425 -0.5325 3.935 -1 3 C-0.67 2.01 -0.34 1.02 0 0 Z " fill="#767479" transform="translate(229,156)"/>
<path d="M0 0 C0.33 0 0.66 0 1 0 C1.45755719 7.62595318 -0.25463701 14.6029854 -2 22 C-2.33 22 -2.66 22 -3 22 C-3.39363688 14.25847464 -1.94210433 7.47941368 0 0 Z " fill="#666566" transform="translate(55,134)"/>
<path d="M0 0 C0.66 0 1.32 0 2 0 C0.89309248 6.40593286 -0.33945169 12.71363856 -2 19 C-2.33 19 -2.66 19 -3 19 C-3.33693273 12.03672362 -2.3030887 6.56654456 0 0 Z " fill="#4D4B4C" transform="translate(119,90)"/>
<path d="M0 0 C2.70406845 1.41360227 4.65331406 3.00282047 7 5 C6.01 5.33 5.02 5.66 4 6 C3.40703125 5.53980469 2.8140625 5.07960937 2.203125 4.60546875 C-0.66261341 2.5171381 -2.73935115 2.50329613 -6.25 2.3125 C-7.32765625 2.24675781 -8.4053125 2.18101562 -9.515625 2.11328125 C-10.33546875 2.07589844 -11.1553125 2.03851563 -12 2 C-7.9670306 -0.68864626 -4.74058987 -0.80707563 0 0 Z " fill="#6A6869" transform="translate(294,199)"/>
<path d="M0 0 C0.33 0.99 0.66 1.98 1 3 C-2.51822249 7.43601966 -6.75390186 8.52033129 -12 10 C-8.29909479 6.0747975 -4.45040344 3.05419844 0 0 Z " fill="#5D5B5D" transform="translate(159,231)"/>
<path d="M0 0 C2.31 0.33 4.62 0.66 7 1 C3.9377256 3.48627517 0.8542946 5.09989404 -2.75 6.6875 C-3.73484375 7.12449219 -4.7196875 7.56148437 -5.734375 8.01171875 C-6.48203125 8.33785156 -7.2296875 8.66398438 -8 9 C-8 8.01 -8 7.02 -8 6 C-4.91190305 4.23537317 -3.76687864 4 0 4 C0 2.68 0 1.36 0 0 Z " fill="#605F60" transform="translate(87,201)"/>
<path d="M0 0 C0.33 0 0.66 0 1 0 C1.33157682 6.18943397 0.58190846 10.33966222 -2 16 C-2.66 16.33 -3.32 16.66 -4 17 C-3.35729017 11.0870696 -1.80996216 5.65755469 0 0 Z " fill="#696068" transform="translate(60,117)"/>
<path d="M0 0 C6.27 0.66 12.54 1.32 19 2 C19 2.33 19 2.66 19 3 C14.38 3 9.76 3 5 3 C5.33 3.66 5.66 4.32 6 5 C4.125 4.75 4.125 4.75 2 4 C1.34 2.68 0.68 1.36 0 0 Z " fill="#545356" transform="translate(254,212)"/>
<path d="M0 0 C0.99 1.32 1.98 2.64 3 4 C4.65 2.68 6.3 1.36 8 0 C8.66 0.33 9.32 0.66 10 1 C8.875 3.4375 8.875 3.4375 7 6 C3.8125 6.8125 3.8125 6.8125 1 7 C0.67 4.69 0.34 2.38 0 0 Z " fill="#484547" transform="translate(240,164)"/>
<path d="M0 0 C0.33 0 0.66 0 1 0 C1.3690205 12.66970387 1.3690205 12.66970387 -1 18 C-1.66 18 -2.32 18 -3 18 C-2.19500136 11.96251023 -1.11517502 5.98729887 0 0 Z " fill="#5F5C5C" transform="translate(374,407)"/>
<path d="M0 0 C1.25541557 3.76624671 0.37061958 5.37188934 -1 9 C-2.32 9 -3.64 9 -5 9 C-5.3125 6.75 -5.3125 6.75 -5 4 C-2.5 1.6875 -2.5 1.6875 0 0 Z " fill="#0C0809" transform="translate(94,48)"/>
<path d="M0 0 C0.99 0 1.98 0 3 0 C4.00484204 1.95585325 5.00373805 3.91476237 6 5.875 C6.556875 6.96554687 7.11375 8.05609375 7.6875 9.1796875 C9 12 9 12 9 14 C8.34 14 7.68 14 7 14 C4.69 9.38 2.38 4.76 0 0 Z " fill="#5E5D5F" transform="translate(172,528)"/>
<path d="M0 0 C1.93818597 3.22037053 2.18000929 5.28834086 1.75 9 C1.66234375 9.845625 1.5746875 10.69125 1.484375 11.5625 C0.99747499 14.01270651 0.22317883 15.8343719 -1 18 C-1.11269443 11.8894576 -0.89604368 6.04829486 0 0 Z " fill="#494747" transform="translate(294,375)"/>
<path d="M0 0 C0.33 0.99 0.66 1.98 1 3 C0.01 3.33 -0.98 3.66 -2 4 C-2.33 4.66 -2.66 5.32 -3 6 C-3.99 6 -4.98 6 -6 6 C-6.33 6.99 -6.66 7.98 -7 9 C-8.32 8.67 -9.64 8.34 -11 8 C-9.5433323 6.85204994 -8.08461063 5.70670581 -6.625 4.5625 C-5.40683594 3.60537109 -5.40683594 3.60537109 -4.1640625 2.62890625 C-2 1 -2 1 0 0 Z " fill="#505051" transform="translate(74,259)"/>
<path d="M0 0 C4 0 4 0 5.75 1.375 C7 3 7 3 7 5 C5.37675914 5.22162329 3.751279 5.42689803 2.125 5.625 C0.76761719 5.79902344 0.76761719 5.79902344 -0.6171875 5.9765625 C-1.40351563 5.98429688 -2.18984375 5.99203125 -3 6 C-3.66 5.34 -4.32 4.68 -5 4 C-2.36 4 0.28 4 3 4 C2.01 2.68 1.02 1.36 0 0 Z " fill="#6A676D" transform="translate(176,195)"/>
<path d="M0 0 C0.33 0 0.66 0 1 0 C0.9127395 2.25071906 0.80455885 4.50063388 0.6875 6.75 C0.62949219 8.00296875 0.57148437 9.2559375 0.51171875 10.546875 C-0.00455901 14.03076463 -0.6253256 15.47889796 -3 18 C-3.42765417 11.58518742 -1.85743168 6.11404596 0 0 Z " fill="#6B6868" transform="translate(100,114)"/>
<path d="M0 0 C0.66 0 1.32 0 2 0 C1.48517081 5.852795 0.54642808 11.3297637 -1 17 C-1.33 17 -1.66 17 -2 17 C-1.85899143 14.72886197 -1.71203245 12.45809275 -1.5625 10.1875 C-1.48128906 8.92292969 -1.40007812 7.65835938 -1.31640625 6.35546875 C-1 3 -1 3 0 0 Z " fill="#575657" transform="translate(124,67)"/>
<path d="M0 0 C1.37095624 3.69037278 0.60010967 5.70883835 -0.9375 9.25 C-1.31777344 10.14203125 -1.69804688 11.0340625 -2.08984375 11.953125 C-2.39019531 12.62859375 -2.69054687 13.3040625 -3 14 C-3.66 14 -4.32 14 -5 14 C-4.46515599 8.65155992 -2.53309233 4.64203897 0 0 Z " fill="#545353" transform="translate(68,97)"/>
<path d="M0 0 C0.99 0.33 1.98 0.66 3 1 C4.1875 4.5625 4.1875 4.5625 5 8 C4.01 8.495 4.01 8.495 3 9 C0.7522025 6.94766315 -0.0022242 5.99332739 -1 3 C-0.67 2.01 -0.34 1.02 0 0 Z " fill="#7B7A7C" transform="translate(82,483)"/>
<path d="M0 0 C0.66 0.99 1.32 1.98 2 3 C0.02 6.63 -1.96 10.26 -4 14 C-4.66 14 -5.32 14 -6 14 C-6.33 13.01 -6.66 12.02 -7 11 C-6.401875 10.484375 -5.80375 9.96875 -5.1875 9.4375 C-2.4926464 6.43466313 -1.44279381 3.75126391 0 0 Z " fill="#463A46" transform="translate(365,461)"/>
<path d="M0 0 C0.66 0 1.32 0 2 0 C4.04169485 2.90548882 5 4.40142046 5 8 C5.66 8 6.32 8 7 8 C7.33 9.98 7.66 11.96 8 14 C5.50447597 11.72402354 3.93377014 9.39278822 2.3125 6.4375 C1.87550781 5.65246094 1.43851562 4.86742187 0.98828125 4.05859375 C0 2 0 2 0 0 Z " fill="#616161" transform="translate(63,451)"/>
<path d="M0 0 C0.66 0 1.32 0 2 0 C2 5.28 2 10.56 2 16 C1.67 16 1.34 16 1 16 C0.63409254 14.27327966 0.28277805 12.54346345 -0.0625 10.8125 C-0.35833984 9.36810547 -0.35833984 9.36810547 -0.66015625 7.89453125 C-1.00423947 4.96389138 -0.74164697 2.83692932 0 0 Z " fill="#2B2A2B" transform="translate(383,321)"/>
<path d="M0 0 C-0.33 0.99 -0.66 1.98 -1 3 C-2.79133978 3.05391993 -4.58313899 3.09275571 -6.375 3.125 C-7.37273438 3.14820313 -8.37046875 3.17140625 -9.3984375 3.1953125 C-12 3 -12 3 -14 1 C-12.04175306 0.83232136 -10.08339945 0.66588795 -8.125 0.5 C-6.48917969 0.36078125 -6.48917969 0.36078125 -4.8203125 0.21875 C-3.21670436 0.09437042 -1.60842449 0 0 0 Z " fill="#4F4D4F" transform="translate(45,280)"/>
<path d="M0 0 C3.63 0 7.26 0 11 0 C10.01 1.485 10.01 1.485 9 3 C6.36 2.67 3.72 2.34 1 2 C0.67 2.99 0.34 3.98 0 5 C-0.33 4.01 -0.66 3.02 -1 2 C-0.67 1.34 -0.34 0.68 0 0 Z " fill="#838182" transform="translate(135,242)"/>
<path d="M0 0 C1.32 0 2.64 0 4 0 C4.33 0.66 4.66 1.32 5 2 C7.01669827 3.13350534 7.01669827 3.13350534 9 4 C9 4.66 9 5.32 9 6 C9.66 6 10.32 6 11 6 C10.67 6.99 10.34 7.98 10 9 C8.66102417 8.04956626 7.32894573 7.08940853 6 6.125 C5.2575 5.59132812 4.515 5.05765625 3.75 4.5078125 C3.1725 4.01023438 2.595 3.51265625 2 3 C2 2.34 2 1.68 2 1 C1.34 0.67 0.68 0.34 0 0 Z " fill="#656465" transform="translate(298,228)"/>
<path d="M0 0 C-0.66 0 -1.32 0 -2 0 C-2 0.66 -2 1.32 -2 2 C-3.60049704 2.39036513 -5.20562371 2.76178619 -6.8125 3.125 C-7.70582031 3.33382812 -8.59914063 3.54265625 -9.51953125 3.7578125 C-12 4 -12 4 -15 2 C-13.25364835 1.46706165 -11.50272348 0.94909337 -9.75 0.4375 C-8.77546875 0.14746094 -7.8009375 -0.14257812 -6.796875 -0.44140625 C-4.03756068 -0.99249836 -2.6087176 -0.93789609 0 0 Z " fill="#605F60" transform="translate(105,187)"/>
<path d="M0 0 C-0.33 0.99 -0.66 1.98 -1 3 C-1.66 2.67 -2.32 2.34 -3 2 C-3 2.66 -3 3.32 -3 4 C-5.64 4 -8.28 4 -11 4 C-7.39482939 0.00856111 -5.29679003 -1.76559668 0 0 Z " fill="#716572" transform="translate(211,156)"/>
<path d="M0 0 C3 1 3 1 4.203125 2.9609375 C4.54859375 3.75757813 4.8940625 4.55421875 5.25 5.375 C5.60578125 6.16648437 5.9615625 6.95796875 6.328125 7.7734375 C7 10 7 10 6 13 C4.99759911 11.02204824 3.99813957 9.04260558 3 7.0625 C2.1646875 5.40927734 2.1646875 5.40927734 1.3125 3.72265625 C0 1 0 1 0 0 Z " fill="#5C5567" transform="translate(333,39)"/>
<path d="M0 0 C0.66 0 1.32 0 2 0 C1.49396008 2.16874252 1.00016187 3.99967627 0 6 C-0.66 6 -1.32 6 -2 6 C-2 6.99 -2 7.98 -2 9 C-2.66 9 -3.32 9 -4 9 C-4 7.02 -4 5.04 -4 3 C-3.01 3 -2.02 3 -1 3 C-0.67 2.01 -0.34 1.02 0 0 Z " fill="#151114" transform="translate(103,30)"/>
<path d="M0 0 C0.33 0.66 0.66 1.32 1 2 C-0.98 4.97 -0.98 4.97 -3 8 C-3.99 7.67 -4.98 7.34 -6 7 C-6 5.35 -6 3.7 -6 2 C-5.67 2.99 -5.34 3.98 -5 5 C-4.34 5 -3.68 5 -3 5 C-2.87625 4.360625 -2.7525 3.72125 -2.625 3.0625 C-2.41875 2.381875 -2.2125 1.70125 -2 1 C-1.34 0.67 -0.68 0.34 0 0 Z " fill="#4D4748" transform="translate(221,355)"/>
<path d="M0 0 C0.66 0.33 1.32 0.66 2 1 C-1.61139896 5.31606218 -1.61139896 5.31606218 -4 7 C-7.875 6.875 -7.875 6.875 -11 6 C-8.33333333 5.33333333 -5.66666667 4.66666667 -3 4 C-3 3.01 -3 2.02 -3 1 C-2.01 0.67 -1.02 0.34 0 0 Z " fill="#666565" transform="translate(376,208)"/>
<path d="M0 0 C0.33 0 0.66 0 1 0 C0.67 3.63 0.34 7.26 0 11 C-0.66 11 -1.32 11 -2 11 C-2.33 11.66 -2.66 12.32 -3 13 C-2.52060632 8.28596212 -2.03165952 4.33420699 0 0 Z " fill="#5C5A5B" transform="translate(261,497)"/>
<path d="M0 0 C0.66 0 1.32 0 2 0 C1.71682074 1.60568666 1.42312209 3.20952047 1.125 4.8125 C0.96257812 5.70582031 0.80015625 6.59914063 0.6328125 7.51953125 C0 10 0 10 -2 13 C-2.19294408 8.17639811 -1.75747614 4.50353262 0 0 Z " fill="#565656" transform="translate(239,297)"/>
<path d="M0 0 C0.66 0 1.32 0 2 0 C3.42258812 3.82320557 4.24042276 6.91281305 4 11 C3.34 11 2.68 11 2 11 C1.34 7.37 0.68 3.74 0 0 Z " fill="#5B5A5A" transform="translate(358,106)"/>
<path d="M0 0 C0.66 0 1.32 0 2 0 C1.34 3.63 0.68 7.26 0 11 C-0.66 11 -1.32 11 -2 11 C-1.85892253 9.54119891 -1.71197585 8.08296449 -1.5625 6.625 C-1.48128906 5.81289062 -1.40007812 5.00078125 -1.31640625 4.1640625 C-1 2 -1 2 0 0 Z " fill="#565555" transform="translate(105,97)"/>
<path d="M0 0 C1.11003253 3.3300976 0.9343162 3.97843441 -0.25 7.125 C-0.62898438 8.18074219 -0.62898438 8.18074219 -1.015625 9.2578125 C-2 11 -2 11 -5 12 C-3.68938409 7.76570244 -2.05643741 3.92592596 0 0 Z " fill="#6C6B6C" transform="translate(87,53)"/>
<path d="M0 0 C0 3 0 3 -1 6 C-4.0625 7.1875 -4.0625 7.1875 -7 8 C-7 7.34 -7 6.68 -7 6 C-6.34 6 -5.68 6 -5 6 C-4.67 5.01 -4.34 4.02 -4 3 C-1.9375 1.3125 -1.9375 1.3125 0 0 Z " fill="#3F3E40" transform="translate(98,239)"/>
<path d="M0 0 C-1.43671568 0.64757625 -2.87440416 1.29299453 -4.3125 1.9375 C-5.11300781 2.29714844 -5.91351563 2.65679687 -6.73828125 3.02734375 C-9 4 -9 4 -12 5 C-12 4.01 -12 3.02 -12 2 C-11.01 2 -10.02 2 -9 2 C-9 1.34 -9 0.68 -9 0 C-5.5657338 -0.85856655 -3.38317487 -0.97591583 0 0 Z " fill="#626163" transform="translate(268,190)"/>
<path d="M0 0 C2.9555377 2.75170751 5.11563315 5.41970299 7 9 C7 9.66 7 10.32 7 11 C6.01 11 5.02 11 4 11 C3.32880451 9.5437455 2.66318193 8.08492133 2 6.625 C1.62875 5.81289063 1.2575 5.00078125 0.875 4.1640625 C0 2 0 2 0 0 Z " fill="#737273" transform="translate(339,40)"/>
<path d="M0 0 C0.99 0.99 1.98 1.98 3 3 C2 6 2 6 -0.0625 7.1875 C-0.701875 7.455625 -1.34125 7.72375 -2 8 C-2 8.99 -2 9.98 -2 11 C-2.66 10.67 -3.32 10.34 -4 10 C-2.68 6.7 -1.36 3.4 0 0 Z " fill="#5F5E5E" transform="translate(363,452)"/>
<path d="M0 0 C2 1.3125 2 1.3125 4 4 C4.36089448 7.68855385 4.22933459 11.3051649 4 15 C3.67 15 3.34 15 3 15 C2.92652344 13.93458984 2.92652344 13.93458984 2.8515625 12.84765625 C2.73941406 11.46900391 2.73941406 11.46900391 2.625 10.0625 C2.55539063 9.14597656 2.48578125 8.22945313 2.4140625 7.28515625 C2.27742187 6.53105469 2.14078125 5.77695312 2 5 C1.34 4.67 0.68 4.34 0 4 C0 2.68 0 1.36 0 0 Z " fill="#69676A" transform="translate(151,260)"/>
<path d="M0 0 C0 0.99 0 1.98 0 3 C-0.66 3 -1.32 3 -2 3 C-2.33 4.32 -2.66 5.64 -3 7 C-4.65 7.33 -6.3 7.66 -8 8 C-6.625 6 -6.625 6 -5 4 C-4.34 4 -3.68 4 -3 4 C-3 3.34 -3 2.68 -3 2 C-2.01 1.34 -1.02 0.68 0 0 Z " fill="#5E5D5F" transform="translate(107,231)"/>
<path d="M0 0 C4 0 4 0 6.75 2.3125 C9 5 9 5 9 8 C7.49712782 6.85793642 5.99776716 5.71125043 4.5 4.5625 C3.6646875 3.92441406 2.829375 3.28632813 1.96875 2.62890625 C1.3190625 2.09136719 0.669375 1.55382812 0 1 C0 0.67 0 0.34 0 0 Z " fill="#645F64" transform="translate(243,224)"/>
<path d="M0 0 C1.41750563 0.11509661 2.83401169 0.24253658 4.25 0.375 C5.03890625 0.44460937 5.8278125 0.51421875 6.640625 0.5859375 C9.085877 1.01507113 10.84836903 1.78600638 13 3 C4.80743982 3.4726477 4.80743982 3.4726477 1.4375 1.5 C0.963125 1.005 0.48875 0.51 0 0 Z " fill="#686669" transform="translate(321,187)"/>
<path d="M0 0 C0.66 0 1.32 0 2 0 C0.50902342 3.7952131 -1.75700849 5.61042731 -5 8 C-5.33 7.01 -5.66 6.02 -6 5 C-5.01 5 -4.02 5 -3 5 C-2.5359375 4.0409375 -2.5359375 4.0409375 -2.0625 3.0625 C-1 1 -1 1 0 0 Z " fill="#676767" transform="translate(344,160)"/>
<path d="M0 0 C2.44839588 3.67259383 4 6.54648201 4 11 C3.34 11 2.68 11 2 11 C0.19769832 7.17010894 -0.19622241 4.21878192 0 0 Z " fill="#4B4A4A" transform="translate(368,100)"/>
<path d="M0 0 C0.66 0 1.32 0 2 0 C3.80230168 3.82989106 4.19622241 6.78121808 4 11 C1.55160412 7.32740617 0 4.45351799 0 0 Z " fill="#504F4F" transform="translate(56,433)"/>
<path d="M0 0 C1.80125336 2.70188004 3.00243753 4.93057703 4 8 C3.67 8.99 3.34 9.98 3 11 C-1.06153846 4.6 -1.06153846 4.6 -0.75 1.5625 C-0.5025 1.046875 -0.255 0.53125 0 0 Z " fill="#565555" transform="translate(327,92)"/>
<path d="M0 0 C1.37432457 3.81756824 0.67975039 7.07255329 0 11 C-0.99 11 -1.98 11 -3 11 C-1.125 3.375 -1.125 3.375 0 0 Z " fill="#5D5C5C" transform="translate(120,55)"/>
<path d="M0 0 C0.99 0 1.98 0 3 0 C3 1.65 3 3.3 3 5 C1.68 5.33 0.36 5.66 -1 6 C-1.042721 4.33388095 -1.04063832 2.66617115 -1 1 C-0.67 0.67 -0.34 0.34 0 0 Z " fill="#747174" transform="translate(105,23)"/>
<path d="M0 0 C2.52845528 1.26422764 2.76422764 2.52845528 4 5 C2.68 6.32 1.36 7.64 0 9 C-1.53445094 5.93109813 -0.54984289 3.29905734 0 0 Z " fill="#191516" transform="translate(359,463)"/>
<path d="M0 0 C2.27795022 2.27795022 3.05219877 3.93787293 4 7 C3.625 9.3125 3.625 9.3125 3 11 C0.29417212 7.16674383 -0.32613618 4.67461851 0 0 Z " fill="#6B636B" transform="translate(76,463)"/>
<path d="M0 0 C0.66 0 1.32 0 2 0 C3.60355101 3.50776784 4.22036864 6.14354879 4 10 C1.16625119 6.79663178 0.4794463 4.21912747 0 0 Z " fill="#585757" transform="translate(197,336)"/>
<path d="M0 0 C0.66 0.33 1.32 0.66 2 1 C-0.97 3.475 -0.97 3.475 -4 6 C-4.33 5.01 -4.66 4.02 -5 3 C-2.625 1.4375 -2.625 1.4375 0 0 Z " fill="#3A3839" transform="translate(129,212)"/>
<path d="M0 0 C0.66 0 1.32 0 2 0 C2.99 2.97 3.98 5.94 5 9 C4.34 9 3.68 9 3 9 C2.01 6.03 1.02 3.06 0 0 Z " fill="#403F3F" transform="translate(363,90)"/>
<path d="M0 0 C1.2380014 3.57644848 0.74926071 6.33694766 0 10 C-0.99 10.33 -1.98 10.66 -3 11 C-2.44894091 7.0507432 -1.61064629 3.65079826 0 0 Z " fill="#625D5F" transform="translate(126,39)"/>
<path d="M0 0 C0.66 0 1.32 0 2 0 C0.33333333 3.33333333 -1.33333333 6.66666667 -3 10 C-4 7 -4 7 -3.22265625 5.17578125 C-2.1484375 3.45052083 -1.07421875 1.72526042 0 0 Z " fill="#7A787A" transform="translate(254,531)"/>
<path d="M0 0 C0.12375 0.61875 0.2475 1.2375 0.375 1.875 C0.87197356 4.19120832 0.87197356 4.19120832 3 6 C1.02 6.99 1.02 6.99 -1 8 C-2.2077558 4.37673261 -1.54311128 3.35853631 0 0 Z " fill="#8D8D8D" transform="translate(350,486)"/>
<path d="M0 0 C0.66 1.32 1.32 2.64 2 4 C2.66 4 3.32 4 4 4 C4 6.31 4 8.62 4 11 C1.55160412 7.32740617 0 4.45351799 0 0 Z " fill="#646161" transform="translate(45,404)"/>
<path d="M0 0 C2.64 1.65 5.28 3.3 8 5 C7.01 5.33 6.02 5.66 5 6 C4.34 5.67 3.68 5.34 3 5 C3 4.34 3 3.68 3 3 C2.01 3.33 1.02 3.66 0 4 C0 2.68 0 1.36 0 0 Z " fill="#626161" transform="translate(356,254)"/>
<path d="M0 0 C0.66 0 1.32 0 2 0 C0.66666667 3.33333333 -0.66666667 6.66666667 -2 10 C-2.6875 8.375 -2.6875 8.375 -3 6 C-1.5625 2.75 -1.5625 2.75 0 0 Z " fill="#636262" transform="translate(257,174)"/>
<path d="M0 0 C1.15941038 3.47823115 0.70820884 5.45895578 0 9 C-0.99 8.67 -1.98 8.34 -3 8 C-1.125 1.125 -1.125 1.125 0 0 Z " fill="#130B0E" transform="translate(133,28)"/>
<path d="M0 0 C0.66 0 1.32 0 2 0 C1.34 2.97 0.68 5.94 0 9 C-0.66 8.67 -1.32 8.34 -2 8 C-1.33333333 5.33333333 -0.66666667 2.66666667 0 0 Z " fill="#626162" transform="translate(277,471)"/>
<path d="M0 0 C0.66666667 1.33333333 1.33333333 2.66666667 2 4 C2.391875 4.680625 2.78375 5.36125 3.1875 6.0625 C4 8 4 8 3 11 C0.29417212 7.16674383 -0.32613618 4.67461851 0 0 Z " fill="#666363" transform="translate(72,451)"/>
<path d="M0 0 C0.33 0 0.66 0 1 0 C1.36923077 7.50769231 1.36923077 7.50769231 -0.5 10 C-0.995 10.33 -1.49 10.66 -2 11 C-1 3.57142857 -1 3.57142857 0 0 Z " fill="#838383" transform="translate(369,430)"/>
<path d="M0 0 C1.98 0.66 3.96 1.32 6 2 C6 3.65 6 5.3 6 7 C1.125 2.25 1.125 2.25 0 0 Z " fill="#4F4D4F" transform="translate(375,293)"/>
<path d="M0 0 C0.66 0.33 1.32 0.66 2 1 C0.68 2.65 -0.64 4.3 -2 6 C-2.99 5.67 -3.98 5.34 -5 5 C-4.1875 3.0625 -4.1875 3.0625 -3 1 C-2.01 0.67 -1.02 0.34 0 0 Z " fill="#1B1819" transform="translate(149,240)"/>
<path d="M0 0 C5.53846154 0.61538462 5.53846154 0.61538462 7.875 2.5625 C8.431875 3.2740625 8.431875 3.2740625 9 4 C8.01 4.495 8.01 4.495 7 5 C4.5249829 3.88568235 2.32116581 2.41849022 0 1 C0 0.67 0 0.34 0 0 Z " fill="#61575F" transform="translate(345,202)"/>
<path d="M0 0 C-0.66 0 -1.32 0 -2 0 C-2 0.99 -2 1.98 -2 3 C-4.64 2.67 -7.28 2.34 -10 2 C-3.72972973 -1.24324324 -3.72972973 -1.24324324 0 0 Z " fill="#6D6B6C" transform="translate(116,184)"/>
<path d="M0 0 C1.75 0.125 1.75 0.125 4 1 C6.25 4.0625 6.25 4.0625 8 7 C6.68 6.34 5.36 5.68 4 5 C4 4.34 4 3.68 4 3 C2.68 2.34 1.36 1.68 0 1 C0 0.67 0 0.34 0 0 Z " fill="#3C393C" transform="translate(179,155)"/>
<path d="M0 0 C0.99 0.33 1.98 0.66 3 1 C2.34 3.97 1.68 6.94 1 10 C0.10305206 6.41220825 -0.08304117 3.65381163 0 0 Z " fill="#605F5F" transform="translate(87,65)"/>
</svg>
